M48
; DRILL file {KiCad (5.1.9)-1} date 01/30/21 10:24:17
; FORMAT={-:-/ absolute / metric / decimal}
; #@! TF.CreationDate,2021-01-30T10:24:17-03:00
; #@! TF.GenerationSoftware,Kicad,Pcbnew,(5.1.9)-1
; #@! TF.FileFunction,Plated,1,2,PTH
FMAT,2
METRIC
T1C0.700
T2C0.762
T3C1.190
T4C1.300
%
G90
G05
T1
X8.91Y43.41
X8.91Y42.375
X8.91Y41.34
X8.91Y40.28
X9.89Y43.39
X9.89Y42.355
X9.89Y41.32
X9.89Y40.26
X14.02Y31.09
X14.02Y30.02
X14.02Y28.985
X14.02Y27.95
X15.0Y31.07
X15.0Y30.0
X15.0Y28.965
X15.0Y27.93
X15.57Y13.35
X15.59Y8.31
X15.61Y15.43
X15.63Y10.49
X17.75Y13.34
X17.77Y15.41
X17.92Y10.51
X17.94Y8.29
X28.51Y4.01
X28.53Y4.99
X29.545Y4.01
X29.565Y4.99
X30.58Y4.01
X30.6Y4.99
X47.0Y20.1
X48.54Y3.53
X48.54Y2.54
X49.575Y2.54
X49.595Y3.52
X54.68Y17.44
X57.03Y13.58
X57.47Y19.59
X60.3Y3.88
X60.32Y4.86
X61.335Y3.88
X61.355Y4.86
X62.37Y3.88
X62.39Y4.86
X63.14Y15.42
X65.06Y11.47
X65.98Y15.77
X73.98Y3.99
X74.0Y4.97
X75.015Y3.99
X75.035Y4.97
X76.05Y3.99
X76.07Y4.97
T2
X42.49Y51.26
X42.49Y25.86
X45.03Y51.26
X45.03Y25.86
X47.57Y51.26
X47.57Y25.86
X50.11Y51.26
X50.11Y25.86
X52.65Y51.26
X52.65Y25.86
X55.19Y51.26
X55.19Y25.86
X57.73Y51.26
X57.73Y25.86
X60.27Y51.26
X60.27Y25.86
X62.81Y51.26
X62.81Y25.86
X65.35Y51.26
X65.35Y25.86
X67.89Y51.26
X67.89Y25.86
X70.43Y51.26
X70.43Y25.86
X72.97Y51.26
X72.97Y25.86
X75.51Y51.26
X75.51Y25.86
X78.05Y51.26
X78.05Y25.86
T3
X16.79Y42.55
X19.33Y42.55
X21.87Y42.55
X24.41Y42.55
X75.26Y11.53
X77.8Y11.53
X80.34Y11.53
X82.88Y11.53
T4
X12.62Y14.4
X12.62Y9.4
T0
M30
