%TF.GenerationSoftware,KiCad,Pcbnew,(5.1.9)-1*%
%TF.CreationDate,2021-01-30T10:24:11-03:00*%
%TF.ProjectId,Placa_aquisicao,506c6163-615f-4617-9175-69736963616f,rev?*%
%TF.SameCoordinates,PX40bc440PY798bb90*%
%TF.FileFunction,Copper,L1,Top*%
%TF.FilePolarity,Positive*%
%FSLAX46Y46*%
G04 Gerber Fmt 4.6, Leading zero omitted, Abs format (unit mm)*
G04 Created by KiCad (PCBNEW (5.1.9)-1) date 2021-01-30 10:24:11*
%MOMM*%
%LPD*%
G01*
G04 APERTURE LIST*
%TA.AperFunction,ComponentPad*%
%ADD10R,1.524000X1.524000*%
%TD*%
%TA.AperFunction,ComponentPad*%
%ADD11C,1.524000*%
%TD*%
%TA.AperFunction,SMDPad,CuDef*%
%ADD12R,3.800000X2.000000*%
%TD*%
%TA.AperFunction,SMDPad,CuDef*%
%ADD13R,1.500000X2.000000*%
%TD*%
%TA.AperFunction,ComponentPad*%
%ADD14C,2.600000*%
%TD*%
%TA.AperFunction,ComponentPad*%
%ADD15R,2.600000X2.600000*%
%TD*%
%TA.AperFunction,ComponentPad*%
%ADD16O,1.740000X2.190000*%
%TD*%
%TA.AperFunction,SMDPad,CuDef*%
%ADD17R,0.900000X0.800000*%
%TD*%
%TA.AperFunction,ViaPad*%
%ADD18C,0.800000*%
%TD*%
%TA.AperFunction,ViaPad*%
%ADD19C,1.200000*%
%TD*%
%TA.AperFunction,Conductor*%
%ADD20C,1.000000*%
%TD*%
%TA.AperFunction,Conductor*%
%ADD21C,0.400000*%
%TD*%
%TA.AperFunction,Conductor*%
%ADD22C,0.500000*%
%TD*%
%TA.AperFunction,Conductor*%
%ADD23C,0.250000*%
%TD*%
%TA.AperFunction,Conductor*%
%ADD24C,0.254000*%
%TD*%
%TA.AperFunction,Conductor*%
%ADD25C,0.100000*%
%TD*%
G04 APERTURE END LIST*
D10*
%TO.P,U5,1*%
%TO.N,Net-(U5-Pad1)*%
X78050000Y51260000D03*
D11*
%TO.P,U5,2*%
%TO.N,Net-(U5-Pad2)*%
X75510000Y51260000D03*
%TO.P,U5,3*%
%TO.N,Net-(U5-Pad3)*%
X72970000Y51260000D03*
%TO.P,U5,4*%
%TO.N,Net-(U5-Pad4)*%
X70430000Y51260000D03*
%TO.P,U5,5*%
%TO.N,Net-(U5-Pad5)*%
X67890000Y51260000D03*
%TO.P,U5,6*%
%TO.N,Net-(U5-Pad6)*%
X65350000Y51260000D03*
%TO.P,U5,7*%
%TO.N,Net-(U5-Pad7)*%
X62810000Y51260000D03*
%TO.P,U5,8*%
%TO.N,Net-(U5-Pad8)*%
X60270000Y51260000D03*
%TO.P,U5,9*%
%TO.N,Net-(U5-Pad9)*%
X57730000Y51260000D03*
%TO.P,U5,10*%
%TO.N,Net-(U5-Pad10)*%
X55190000Y51260000D03*
%TO.P,U5,11*%
%TO.N,Net-(U5-Pad11)*%
X52650000Y51260000D03*
%TO.P,U5,12*%
%TO.N,Net-(U5-Pad12)*%
X50110000Y51260000D03*
%TO.P,U5,13*%
%TO.N,Net-(U5-Pad13)*%
X47570000Y51260000D03*
%TO.P,U5,14*%
%TO.N,GND*%
X45030000Y51260000D03*
%TO.P,U5,15*%
%TO.N,+10V*%
X42490000Y51260000D03*
%TO.P,U5,16*%
%TO.N,+3V3*%
X42490000Y25860000D03*
%TO.P,U5,17*%
%TO.N,GND*%
X45030000Y25860000D03*
%TO.P,U5,18*%
%TO.N,Net-(U5-Pad18)*%
X47570000Y25860000D03*
%TO.P,U5,19*%
%TO.N,Net-(U5-Pad19)*%
X50110000Y25860000D03*
%TO.P,U5,20*%
%TO.N,Net-(U5-Pad20)*%
X52650000Y25860000D03*
%TO.P,U5,21*%
%TO.N,Net-(U5-Pad21)*%
X55190000Y25860000D03*
%TO.P,U5,22*%
%TO.N,Net-(U5-Pad22)*%
X57730000Y25860000D03*
%TO.P,U5,23*%
%TO.N,SPI_CS0*%
X60270000Y25860000D03*
%TO.P,U5,24*%
%TO.N,SPI_CLK*%
X62810000Y25860000D03*
%TO.P,U5,25*%
%TO.N,SPI_MISO*%
X65350000Y25860000D03*
%TO.P,U5,26*%
%TO.N,Net-(U5-Pad26)*%
X67890000Y25860000D03*
%TO.P,U5,27*%
%TO.N,/ESP32/UART_RX0*%
X70430000Y25860000D03*
%TO.P,U5,28*%
%TO.N,/ESP32/UART_TX0*%
X72970000Y25860000D03*
%TO.P,U5,29*%
%TO.N,Net-(U5-Pad29)*%
X75510000Y25860000D03*
%TO.P,U5,30*%
%TO.N,Net-(U5-Pad30)*%
X78050000Y25860000D03*
%TD*%
%TO.P,R4,2*%
%TO.N,Net-(Q2-Pad3)*%
%TA.AperFunction,SMDPad,CuDef*%
G36*
G01*
X51329999Y16000000D02*
X52230001Y16000000D01*
G75*
G02*
X52480000Y15750001I0J-249999D01*
G01*
X52480000Y15049999D01*
G75*
G02*
X52230001Y14800000I-249999J0D01*
G01*
X51329999Y14800000D01*
G75*
G02*
X51080000Y15049999I0J249999D01*
G01*
X51080000Y15750001D01*
G75*
G02*
X51329999Y16000000I249999J0D01*
G01*
G37*
%TD.AperFunction*%
%TO.P,R4,1*%
%TO.N,+5V*%
%TA.AperFunction,SMDPad,CuDef*%
G36*
G01*
X51329999Y18000000D02*
X52230001Y18000000D01*
G75*
G02*
X52480000Y17750001I0J-249999D01*
G01*
X52480000Y17049999D01*
G75*
G02*
X52230001Y16800000I-249999J0D01*
G01*
X51329999Y16800000D01*
G75*
G02*
X51080000Y17049999I0J249999D01*
G01*
X51080000Y17750001D01*
G75*
G02*
X51329999Y18000000I249999J0D01*
G01*
G37*
%TD.AperFunction*%
%TD*%
D12*
%TO.P,U1,2*%
%TO.N,+5V*%
X24120000Y28650000D03*
D13*
X24120000Y34950000D03*
%TO.P,U1,3*%
%TO.N,+10V*%
X21820000Y34950000D03*
%TO.P,U1,1*%
%TO.N,GND*%
X26420000Y34950000D03*
%TD*%
%TO.P,C1,1*%
%TO.N,+10V*%
%TA.AperFunction,SMDPad,CuDef*%
G36*
G01*
X21270000Y37350000D02*
X21270000Y38300000D01*
G75*
G02*
X21520000Y38550000I250000J0D01*
G01*
X22195000Y38550000D01*
G75*
G02*
X22445000Y38300000I0J-250000D01*
G01*
X22445000Y37350000D01*
G75*
G02*
X22195000Y37100000I-250000J0D01*
G01*
X21520000Y37100000D01*
G75*
G02*
X21270000Y37350000I0J250000D01*
G01*
G37*
%TD.AperFunction*%
%TO.P,C1,2*%
%TO.N,GND*%
%TA.AperFunction,SMDPad,CuDef*%
G36*
G01*
X23345000Y37350000D02*
X23345000Y38300000D01*
G75*
G02*
X23595000Y38550000I250000J0D01*
G01*
X24270000Y38550000D01*
G75*
G02*
X24520000Y38300000I0J-250000D01*
G01*
X24520000Y37350000D01*
G75*
G02*
X24270000Y37100000I-250000J0D01*
G01*
X23595000Y37100000D01*
G75*
G02*
X23345000Y37350000I0J250000D01*
G01*
G37*
%TD.AperFunction*%
%TD*%
%TO.P,C3,2*%
%TO.N,GND*%
%TA.AperFunction,SMDPad,CuDef*%
G36*
G01*
X26345000Y18747500D02*
X25395000Y18747500D01*
G75*
G02*
X25145000Y18997500I0J250000D01*
G01*
X25145000Y19672500D01*
G75*
G02*
X25395000Y19922500I250000J0D01*
G01*
X26345000Y19922500D01*
G75*
G02*
X26595000Y19672500I0J-250000D01*
G01*
X26595000Y18997500D01*
G75*
G02*
X26345000Y18747500I-250000J0D01*
G01*
G37*
%TD.AperFunction*%
%TO.P,C3,1*%
%TO.N,+5V*%
%TA.AperFunction,SMDPad,CuDef*%
G36*
G01*
X26345000Y16672500D02*
X25395000Y16672500D01*
G75*
G02*
X25145000Y16922500I0J250000D01*
G01*
X25145000Y17597500D01*
G75*
G02*
X25395000Y17847500I250000J0D01*
G01*
X26345000Y17847500D01*
G75*
G02*
X26595000Y17597500I0J-250000D01*
G01*
X26595000Y16922500D01*
G75*
G02*
X26345000Y16672500I-250000J0D01*
G01*
G37*
%TD.AperFunction*%
%TD*%
%TO.P,C4,2*%
%TO.N,Net-(C4-Pad2)*%
%TA.AperFunction,SMDPad,CuDef*%
G36*
G01*
X33370000Y15162500D02*
X34320000Y15162500D01*
G75*
G02*
X34570000Y14912500I0J-250000D01*
G01*
X34570000Y14237500D01*
G75*
G02*
X34320000Y13987500I-250000J0D01*
G01*
X33370000Y13987500D01*
G75*
G02*
X33120000Y14237500I0J250000D01*
G01*
X33120000Y14912500D01*
G75*
G02*
X33370000Y15162500I250000J0D01*
G01*
G37*
%TD.AperFunction*%
%TO.P,C4,1*%
%TO.N,Sinal*%
%TA.AperFunction,SMDPad,CuDef*%
G36*
G01*
X33370000Y17237500D02*
X34320000Y17237500D01*
G75*
G02*
X34570000Y16987500I0J-250000D01*
G01*
X34570000Y16312500D01*
G75*
G02*
X34320000Y16062500I-250000J0D01*
G01*
X33370000Y16062500D01*
G75*
G02*
X33120000Y16312500I0J250000D01*
G01*
X33120000Y16987500D01*
G75*
G02*
X33370000Y17237500I250000J0D01*
G01*
G37*
%TD.AperFunction*%
%TD*%
%TO.P,C5,1*%
%TO.N,Net-(C5-Pad1)*%
%TA.AperFunction,SMDPad,CuDef*%
G36*
G01*
X33325000Y13165000D02*
X34275000Y13165000D01*
G75*
G02*
X34525000Y12915000I0J-250000D01*
G01*
X34525000Y12240000D01*
G75*
G02*
X34275000Y11990000I-250000J0D01*
G01*
X33325000Y11990000D01*
G75*
G02*
X33075000Y12240000I0J250000D01*
G01*
X33075000Y12915000D01*
G75*
G02*
X33325000Y13165000I250000J0D01*
G01*
G37*
%TD.AperFunction*%
%TO.P,C5,2*%
%TO.N,GND*%
%TA.AperFunction,SMDPad,CuDef*%
G36*
G01*
X33325000Y11090000D02*
X34275000Y11090000D01*
G75*
G02*
X34525000Y10840000I0J-250000D01*
G01*
X34525000Y10165000D01*
G75*
G02*
X34275000Y9915000I-250000J0D01*
G01*
X33325000Y9915000D01*
G75*
G02*
X33075000Y10165000I0J250000D01*
G01*
X33075000Y10840000D01*
G75*
G02*
X33325000Y11090000I250000J0D01*
G01*
G37*
%TD.AperFunction*%
%TD*%
%TO.P,C6,2*%
%TO.N,GND*%
%TA.AperFunction,SMDPad,CuDef*%
G36*
G01*
X50045000Y6215000D02*
X50045000Y7165000D01*
G75*
G02*
X50295000Y7415000I250000J0D01*
G01*
X50970000Y7415000D01*
G75*
G02*
X51220000Y7165000I0J-250000D01*
G01*
X51220000Y6215000D01*
G75*
G02*
X50970000Y5965000I-250000J0D01*
G01*
X50295000Y5965000D01*
G75*
G02*
X50045000Y6215000I0J250000D01*
G01*
G37*
%TD.AperFunction*%
%TO.P,C6,1*%
%TO.N,+10V*%
%TA.AperFunction,SMDPad,CuDef*%
G36*
G01*
X47970000Y6215000D02*
X47970000Y7165000D01*
G75*
G02*
X48220000Y7415000I250000J0D01*
G01*
X48895000Y7415000D01*
G75*
G02*
X49145000Y7165000I0J-250000D01*
G01*
X49145000Y6215000D01*
G75*
G02*
X48895000Y5965000I-250000J0D01*
G01*
X48220000Y5965000D01*
G75*
G02*
X47970000Y6215000I0J250000D01*
G01*
G37*
%TD.AperFunction*%
%TD*%
%TO.P,C7,1*%
%TO.N,+10V*%
%TA.AperFunction,SMDPad,CuDef*%
G36*
G01*
X47965000Y8745000D02*
X47965000Y9695000D01*
G75*
G02*
X48215000Y9945000I250000J0D01*
G01*
X48890000Y9945000D01*
G75*
G02*
X49140000Y9695000I0J-250000D01*
G01*
X49140000Y8745000D01*
G75*
G02*
X48890000Y8495000I-250000J0D01*
G01*
X48215000Y8495000D01*
G75*
G02*
X47965000Y8745000I0J250000D01*
G01*
G37*
%TD.AperFunction*%
%TO.P,C7,2*%
%TO.N,GND*%
%TA.AperFunction,SMDPad,CuDef*%
G36*
G01*
X50040000Y8745000D02*
X50040000Y9695000D01*
G75*
G02*
X50290000Y9945000I250000J0D01*
G01*
X50965000Y9945000D01*
G75*
G02*
X51215000Y9695000I0J-250000D01*
G01*
X51215000Y8745000D01*
G75*
G02*
X50965000Y8495000I-250000J0D01*
G01*
X50290000Y8495000D01*
G75*
G02*
X50040000Y8745000I0J250000D01*
G01*
G37*
%TD.AperFunction*%
%TD*%
%TO.P,C8,1*%
%TO.N,+5V*%
%TA.AperFunction,SMDPad,CuDef*%
G36*
G01*
X40985000Y19375000D02*
X40035000Y19375000D01*
G75*
G02*
X39785000Y19625000I0J250000D01*
G01*
X39785000Y20300000D01*
G75*
G02*
X40035000Y20550000I250000J0D01*
G01*
X40985000Y20550000D01*
G75*
G02*
X41235000Y20300000I0J-250000D01*
G01*
X41235000Y19625000D01*
G75*
G02*
X40985000Y19375000I-250000J0D01*
G01*
G37*
%TD.AperFunction*%
%TO.P,C8,2*%
%TO.N,GND*%
%TA.AperFunction,SMDPad,CuDef*%
G36*
G01*
X40985000Y21450000D02*
X40035000Y21450000D01*
G75*
G02*
X39785000Y21700000I0J250000D01*
G01*
X39785000Y22375000D01*
G75*
G02*
X40035000Y22625000I250000J0D01*
G01*
X40985000Y22625000D01*
G75*
G02*
X41235000Y22375000I0J-250000D01*
G01*
X41235000Y21700000D01*
G75*
G02*
X40985000Y21450000I-250000J0D01*
G01*
G37*
%TD.AperFunction*%
%TD*%
%TO.P,C9,2*%
%TO.N,GND*%
%TA.AperFunction,SMDPad,CuDef*%
G36*
G01*
X43990000Y46935000D02*
X43990000Y47885000D01*
G75*
G02*
X44240000Y48135000I250000J0D01*
G01*
X44915000Y48135000D01*
G75*
G02*
X45165000Y47885000I0J-250000D01*
G01*
X45165000Y46935000D01*
G75*
G02*
X44915000Y46685000I-250000J0D01*
G01*
X44240000Y46685000D01*
G75*
G02*
X43990000Y46935000I0J250000D01*
G01*
G37*
%TD.AperFunction*%
%TO.P,C9,1*%
%TO.N,+10V*%
%TA.AperFunction,SMDPad,CuDef*%
G36*
G01*
X41915000Y46935000D02*
X41915000Y47885000D01*
G75*
G02*
X42165000Y48135000I250000J0D01*
G01*
X42840000Y48135000D01*
G75*
G02*
X43090000Y47885000I0J-250000D01*
G01*
X43090000Y46935000D01*
G75*
G02*
X42840000Y46685000I-250000J0D01*
G01*
X42165000Y46685000D01*
G75*
G02*
X41915000Y46935000I0J250000D01*
G01*
G37*
%TD.AperFunction*%
%TD*%
D14*
%TO.P,J2,2*%
%TO.N,Net-(J2-Pad2)*%
X12620000Y14400000D03*
D15*
%TO.P,J2,1*%
%TO.N,Net-(J2-Pad1)*%
X12620000Y9400000D03*
%TD*%
%TO.P,R1,1*%
%TO.N,Net-(C4-Pad2)*%
%TA.AperFunction,SMDPad,CuDef*%
G36*
G01*
X27694999Y15175000D02*
X28595001Y15175000D01*
G75*
G02*
X28845000Y14925001I0J-249999D01*
G01*
X28845000Y14224999D01*
G75*
G02*
X28595001Y13975000I-249999J0D01*
G01*
X27694999Y13975000D01*
G75*
G02*
X27445000Y14224999I0J249999D01*
G01*
X27445000Y14925001D01*
G75*
G02*
X27694999Y15175000I249999J0D01*
G01*
G37*
%TD.AperFunction*%
%TO.P,R1,2*%
%TO.N,Net-(R1-Pad2)*%
%TA.AperFunction,SMDPad,CuDef*%
G36*
G01*
X27694999Y13175000D02*
X28595001Y13175000D01*
G75*
G02*
X28845000Y12925001I0J-249999D01*
G01*
X28845000Y12224999D01*
G75*
G02*
X28595001Y11975000I-249999J0D01*
G01*
X27694999Y11975000D01*
G75*
G02*
X27445000Y12224999I0J249999D01*
G01*
X27445000Y12925001D01*
G75*
G02*
X27694999Y13175000I249999J0D01*
G01*
G37*
%TD.AperFunction*%
%TD*%
%TO.P,R2,2*%
%TO.N,Net-(C4-Pad2)*%
%TA.AperFunction,SMDPad,CuDef*%
G36*
G01*
X31495001Y13975000D02*
X30594999Y13975000D01*
G75*
G02*
X30345000Y14224999I0J249999D01*
G01*
X30345000Y14925001D01*
G75*
G02*
X30594999Y15175000I249999J0D01*
G01*
X31495001Y15175000D01*
G75*
G02*
X31745000Y14925001I0J-249999D01*
G01*
X31745000Y14224999D01*
G75*
G02*
X31495001Y13975000I-249999J0D01*
G01*
G37*
%TD.AperFunction*%
%TO.P,R2,1*%
%TO.N,Net-(C5-Pad1)*%
%TA.AperFunction,SMDPad,CuDef*%
G36*
G01*
X31495001Y11975000D02*
X30594999Y11975000D01*
G75*
G02*
X30345000Y12224999I0J249999D01*
G01*
X30345000Y12925001D01*
G75*
G02*
X30594999Y13175000I249999J0D01*
G01*
X31495001Y13175000D01*
G75*
G02*
X31745000Y12925001I0J-249999D01*
G01*
X31745000Y12224999D01*
G75*
G02*
X31495001Y11975000I-249999J0D01*
G01*
G37*
%TD.AperFunction*%
%TD*%
%TO.P,R3,1*%
%TO.N,+5V*%
%TA.AperFunction,SMDPad,CuDef*%
G36*
G01*
X48689999Y22140000D02*
X49590001Y22140000D01*
G75*
G02*
X49840000Y21890001I0J-249999D01*
G01*
X49840000Y21189999D01*
G75*
G02*
X49590001Y20940000I-249999J0D01*
G01*
X48689999Y20940000D01*
G75*
G02*
X48440000Y21189999I0J249999D01*
G01*
X48440000Y21890001D01*
G75*
G02*
X48689999Y22140000I249999J0D01*
G01*
G37*
%TD.AperFunction*%
%TO.P,R3,2*%
%TO.N,Net-(Q1-Pad3)*%
%TA.AperFunction,SMDPad,CuDef*%
G36*
G01*
X48689999Y20140000D02*
X49590001Y20140000D01*
G75*
G02*
X49840000Y19890001I0J-249999D01*
G01*
X49840000Y19189999D01*
G75*
G02*
X49590001Y18940000I-249999J0D01*
G01*
X48689999Y18940000D01*
G75*
G02*
X48440000Y19189999I0J249999D01*
G01*
X48440000Y19890001D01*
G75*
G02*
X48689999Y20140000I249999J0D01*
G01*
G37*
%TD.AperFunction*%
%TD*%
%TO.P,R5,1*%
%TO.N,+5V*%
%TA.AperFunction,SMDPad,CuDef*%
G36*
G01*
X53929999Y14180000D02*
X54830001Y14180000D01*
G75*
G02*
X55080000Y13930001I0J-249999D01*
G01*
X55080000Y13229999D01*
G75*
G02*
X54830001Y12980000I-249999J0D01*
G01*
X53929999Y12980000D01*
G75*
G02*
X53680000Y13229999I0J249999D01*
G01*
X53680000Y13930001D01*
G75*
G02*
X53929999Y14180000I249999J0D01*
G01*
G37*
%TD.AperFunction*%
%TO.P,R5,2*%
%TO.N,Net-(Q3-Pad3)*%
%TA.AperFunction,SMDPad,CuDef*%
G36*
G01*
X53929999Y12180000D02*
X54830001Y12180000D01*
G75*
G02*
X55080000Y11930001I0J-249999D01*
G01*
X55080000Y11229999D01*
G75*
G02*
X54830001Y10980000I-249999J0D01*
G01*
X53929999Y10980000D01*
G75*
G02*
X53680000Y11229999I0J249999D01*
G01*
X53680000Y11930001D01*
G75*
G02*
X53929999Y12180000I249999J0D01*
G01*
G37*
%TD.AperFunction*%
%TD*%
%TO.P,U2,8*%
%TO.N,+5V*%
%TA.AperFunction,SMDPad,CuDef*%
G36*
G01*
X23870000Y13705000D02*
X23870000Y14005000D01*
G75*
G02*
X24020000Y14155000I150000J0D01*
G01*
X25670000Y14155000D01*
G75*
G02*
X25820000Y14005000I0J-150000D01*
G01*
X25820000Y13705000D01*
G75*
G02*
X25670000Y13555000I-150000J0D01*
G01*
X24020000Y13555000D01*
G75*
G02*
X23870000Y13705000I0J150000D01*
G01*
G37*
%TD.AperFunction*%
%TO.P,U2,7*%
%TO.N,Net-(R1-Pad2)*%
%TA.AperFunction,SMDPad,CuDef*%
G36*
G01*
X23870000Y12435000D02*
X23870000Y12735000D01*
G75*
G02*
X24020000Y12885000I150000J0D01*
G01*
X25670000Y12885000D01*
G75*
G02*
X25820000Y12735000I0J-150000D01*
G01*
X25820000Y12435000D01*
G75*
G02*
X25670000Y12285000I-150000J0D01*
G01*
X24020000Y12285000D01*
G75*
G02*
X23870000Y12435000I0J150000D01*
G01*
G37*
%TD.AperFunction*%
%TO.P,U2,6*%
%TO.N,Net-(U2-Pad6)*%
%TA.AperFunction,SMDPad,CuDef*%
G36*
G01*
X23870000Y11165000D02*
X23870000Y11465000D01*
G75*
G02*
X24020000Y11615000I150000J0D01*
G01*
X25670000Y11615000D01*
G75*
G02*
X25820000Y11465000I0J-150000D01*
G01*
X25820000Y11165000D01*
G75*
G02*
X25670000Y11015000I-150000J0D01*
G01*
X24020000Y11015000D01*
G75*
G02*
X23870000Y11165000I0J150000D01*
G01*
G37*
%TD.AperFunction*%
%TO.P,U2,5*%
%TO.N,GND*%
%TA.AperFunction,SMDPad,CuDef*%
G36*
G01*
X23870000Y9895000D02*
X23870000Y10195000D01*
G75*
G02*
X24020000Y10345000I150000J0D01*
G01*
X25670000Y10345000D01*
G75*
G02*
X25820000Y10195000I0J-150000D01*
G01*
X25820000Y9895000D01*
G75*
G02*
X25670000Y9745000I-150000J0D01*
G01*
X24020000Y9745000D01*
G75*
G02*
X23870000Y9895000I0J150000D01*
G01*
G37*
%TD.AperFunction*%
%TO.P,U2,4*%
%TO.N,Net-(J2-Pad1)*%
%TA.AperFunction,SMDPad,CuDef*%
G36*
G01*
X18920000Y9895000D02*
X18920000Y10195000D01*
G75*
G02*
X19070000Y10345000I150000J0D01*
G01*
X20720000Y10345000D01*
G75*
G02*
X20870000Y10195000I0J-150000D01*
G01*
X20870000Y9895000D01*
G75*
G02*
X20720000Y9745000I-150000J0D01*
G01*
X19070000Y9745000D01*
G75*
G02*
X18920000Y9895000I0J150000D01*
G01*
G37*
%TD.AperFunction*%
%TO.P,U2,3*%
%TA.AperFunction,SMDPad,CuDef*%
G36*
G01*
X18920000Y11165000D02*
X18920000Y11465000D01*
G75*
G02*
X19070000Y11615000I150000J0D01*
G01*
X20720000Y11615000D01*
G75*
G02*
X20870000Y11465000I0J-150000D01*
G01*
X20870000Y11165000D01*
G75*
G02*
X20720000Y11015000I-150000J0D01*
G01*
X19070000Y11015000D01*
G75*
G02*
X18920000Y11165000I0J150000D01*
G01*
G37*
%TD.AperFunction*%
%TO.P,U2,2*%
%TO.N,Net-(J2-Pad2)*%
%TA.AperFunction,SMDPad,CuDef*%
G36*
G01*
X18920000Y12435000D02*
X18920000Y12735000D01*
G75*
G02*
X19070000Y12885000I150000J0D01*
G01*
X20720000Y12885000D01*
G75*
G02*
X20870000Y12735000I0J-150000D01*
G01*
X20870000Y12435000D01*
G75*
G02*
X20720000Y12285000I-150000J0D01*
G01*
X19070000Y12285000D01*
G75*
G02*
X18920000Y12435000I0J150000D01*
G01*
G37*
%TD.AperFunction*%
%TO.P,U2,1*%
%TA.AperFunction,SMDPad,CuDef*%
G36*
G01*
X18920000Y13705000D02*
X18920000Y14005000D01*
G75*
G02*
X19070000Y14155000I150000J0D01*
G01*
X20720000Y14155000D01*
G75*
G02*
X20870000Y14005000I0J-150000D01*
G01*
X20870000Y13705000D01*
G75*
G02*
X20720000Y13555000I-150000J0D01*
G01*
X19070000Y13555000D01*
G75*
G02*
X18920000Y13705000I0J150000D01*
G01*
G37*
%TD.AperFunction*%
%TD*%
%TO.P,U3,1*%
%TO.N,Sinal*%
%TA.AperFunction,SMDPad,CuDef*%
G36*
G01*
X39570000Y9085000D02*
X39570000Y9385000D01*
G75*
G02*
X39720000Y9535000I150000J0D01*
G01*
X41170000Y9535000D01*
G75*
G02*
X41320000Y9385000I0J-150000D01*
G01*
X41320000Y9085000D01*
G75*
G02*
X41170000Y8935000I-150000J0D01*
G01*
X39720000Y8935000D01*
G75*
G02*
X39570000Y9085000I0J150000D01*
G01*
G37*
%TD.AperFunction*%
%TO.P,U3,2*%
%TA.AperFunction,SMDPad,CuDef*%
G36*
G01*
X39570000Y7815000D02*
X39570000Y8115000D01*
G75*
G02*
X39720000Y8265000I150000J0D01*
G01*
X41170000Y8265000D01*
G75*
G02*
X41320000Y8115000I0J-150000D01*
G01*
X41320000Y7815000D01*
G75*
G02*
X41170000Y7665000I-150000J0D01*
G01*
X39720000Y7665000D01*
G75*
G02*
X39570000Y7815000I0J150000D01*
G01*
G37*
%TD.AperFunction*%
%TO.P,U3,3*%
%TO.N,Net-(C5-Pad1)*%
%TA.AperFunction,SMDPad,CuDef*%
G36*
G01*
X39570000Y6545000D02*
X39570000Y6845000D01*
G75*
G02*
X39720000Y6995000I150000J0D01*
G01*
X41170000Y6995000D01*
G75*
G02*
X41320000Y6845000I0J-150000D01*
G01*
X41320000Y6545000D01*
G75*
G02*
X41170000Y6395000I-150000J0D01*
G01*
X39720000Y6395000D01*
G75*
G02*
X39570000Y6545000I0J150000D01*
G01*
G37*
%TD.AperFunction*%
%TO.P,U3,4*%
%TO.N,GND*%
%TA.AperFunction,SMDPad,CuDef*%
G36*
G01*
X39570000Y5275000D02*
X39570000Y5575000D01*
G75*
G02*
X39720000Y5725000I150000J0D01*
G01*
X41170000Y5725000D01*
G75*
G02*
X41320000Y5575000I0J-150000D01*
G01*
X41320000Y5275000D01*
G75*
G02*
X41170000Y5125000I-150000J0D01*
G01*
X39720000Y5125000D01*
G75*
G02*
X39570000Y5275000I0J150000D01*
G01*
G37*
%TD.AperFunction*%
%TO.P,U3,5*%
%TO.N,Net-(U3-Pad5)*%
%TA.AperFunction,SMDPad,CuDef*%
G36*
G01*
X44720000Y5275000D02*
X44720000Y5575000D01*
G75*
G02*
X44870000Y5725000I150000J0D01*
G01*
X46320000Y5725000D01*
G75*
G02*
X46470000Y5575000I0J-150000D01*
G01*
X46470000Y5275000D01*
G75*
G02*
X46320000Y5125000I-150000J0D01*
G01*
X44870000Y5125000D01*
G75*
G02*
X44720000Y5275000I0J150000D01*
G01*
G37*
%TD.AperFunction*%
%TO.P,U3,6*%
%TO.N,Net-(U3-Pad6)*%
%TA.AperFunction,SMDPad,CuDef*%
G36*
G01*
X44720000Y6545000D02*
X44720000Y6845000D01*
G75*
G02*
X44870000Y6995000I150000J0D01*
G01*
X46320000Y6995000D01*
G75*
G02*
X46470000Y6845000I0J-150000D01*
G01*
X46470000Y6545000D01*
G75*
G02*
X46320000Y6395000I-150000J0D01*
G01*
X44870000Y6395000D01*
G75*
G02*
X44720000Y6545000I0J150000D01*
G01*
G37*
%TD.AperFunction*%
%TO.P,U3,7*%
%TO.N,Net-(U3-Pad7)*%
%TA.AperFunction,SMDPad,CuDef*%
G36*
G01*
X44720000Y7815000D02*
X44720000Y8115000D01*
G75*
G02*
X44870000Y8265000I150000J0D01*
G01*
X46320000Y8265000D01*
G75*
G02*
X46470000Y8115000I0J-150000D01*
G01*
X46470000Y7815000D01*
G75*
G02*
X46320000Y7665000I-150000J0D01*
G01*
X44870000Y7665000D01*
G75*
G02*
X44720000Y7815000I0J150000D01*
G01*
G37*
%TD.AperFunction*%
%TO.P,U3,8*%
%TO.N,+10V*%
%TA.AperFunction,SMDPad,CuDef*%
G36*
G01*
X44720000Y9085000D02*
X44720000Y9385000D01*
G75*
G02*
X44870000Y9535000I150000J0D01*
G01*
X46320000Y9535000D01*
G75*
G02*
X46470000Y9385000I0J-150000D01*
G01*
X46470000Y9085000D01*
G75*
G02*
X46320000Y8935000I-150000J0D01*
G01*
X44870000Y8935000D01*
G75*
G02*
X44720000Y9085000I0J150000D01*
G01*
G37*
%TD.AperFunction*%
%TD*%
%TO.P,U4,1*%
%TO.N,+5V*%
%TA.AperFunction,SMDPad,CuDef*%
G36*
G01*
X39590000Y17785000D02*
X39590000Y18085000D01*
G75*
G02*
X39740000Y18235000I150000J0D01*
G01*
X41390000Y18235000D01*
G75*
G02*
X41540000Y18085000I0J-150000D01*
G01*
X41540000Y17785000D01*
G75*
G02*
X41390000Y17635000I-150000J0D01*
G01*
X39740000Y17635000D01*
G75*
G02*
X39590000Y17785000I0J150000D01*
G01*
G37*
%TD.AperFunction*%
%TO.P,U4,2*%
%TO.N,Sinal*%
%TA.AperFunction,SMDPad,CuDef*%
G36*
G01*
X39590000Y16515000D02*
X39590000Y16815000D01*
G75*
G02*
X39740000Y16965000I150000J0D01*
G01*
X41390000Y16965000D01*
G75*
G02*
X41540000Y16815000I0J-150000D01*
G01*
X41540000Y16515000D01*
G75*
G02*
X41390000Y16365000I-150000J0D01*
G01*
X39740000Y16365000D01*
G75*
G02*
X39590000Y16515000I0J150000D01*
G01*
G37*
%TD.AperFunction*%
%TO.P,U4,3*%
%TO.N,GND*%
%TA.AperFunction,SMDPad,CuDef*%
G36*
G01*
X39590000Y15245000D02*
X39590000Y15545000D01*
G75*
G02*
X39740000Y15695000I150000J0D01*
G01*
X41390000Y15695000D01*
G75*
G02*
X41540000Y15545000I0J-150000D01*
G01*
X41540000Y15245000D01*
G75*
G02*
X41390000Y15095000I-150000J0D01*
G01*
X39740000Y15095000D01*
G75*
G02*
X39590000Y15245000I0J150000D01*
G01*
G37*
%TD.AperFunction*%
%TO.P,U4,4*%
%TA.AperFunction,SMDPad,CuDef*%
G36*
G01*
X39590000Y13975000D02*
X39590000Y14275000D01*
G75*
G02*
X39740000Y14425000I150000J0D01*
G01*
X41390000Y14425000D01*
G75*
G02*
X41540000Y14275000I0J-150000D01*
G01*
X41540000Y13975000D01*
G75*
G02*
X41390000Y13825000I-150000J0D01*
G01*
X39740000Y13825000D01*
G75*
G02*
X39590000Y13975000I0J150000D01*
G01*
G37*
%TD.AperFunction*%
%TO.P,U4,5*%
%TO.N,Net-(Q3-Pad3)*%
%TA.AperFunction,SMDPad,CuDef*%
G36*
G01*
X44540000Y13975000D02*
X44540000Y14275000D01*
G75*
G02*
X44690000Y14425000I150000J0D01*
G01*
X46340000Y14425000D01*
G75*
G02*
X46490000Y14275000I0J-150000D01*
G01*
X46490000Y13975000D01*
G75*
G02*
X46340000Y13825000I-150000J0D01*
G01*
X44690000Y13825000D01*
G75*
G02*
X44540000Y13975000I0J150000D01*
G01*
G37*
%TD.AperFunction*%
%TO.P,U4,6*%
%TO.N,Net-(Q2-Pad3)*%
%TA.AperFunction,SMDPad,CuDef*%
G36*
G01*
X44540000Y15245000D02*
X44540000Y15545000D01*
G75*
G02*
X44690000Y15695000I150000J0D01*
G01*
X46340000Y15695000D01*
G75*
G02*
X46490000Y15545000I0J-150000D01*
G01*
X46490000Y15245000D01*
G75*
G02*
X46340000Y15095000I-150000J0D01*
G01*
X44690000Y15095000D01*
G75*
G02*
X44540000Y15245000I0J150000D01*
G01*
G37*
%TD.AperFunction*%
%TO.P,U4,7*%
%TO.N,Net-(Q1-Pad3)*%
%TA.AperFunction,SMDPad,CuDef*%
G36*
G01*
X44540000Y16515000D02*
X44540000Y16815000D01*
G75*
G02*
X44690000Y16965000I150000J0D01*
G01*
X46340000Y16965000D01*
G75*
G02*
X46490000Y16815000I0J-150000D01*
G01*
X46490000Y16515000D01*
G75*
G02*
X46340000Y16365000I-150000J0D01*
G01*
X44690000Y16365000D01*
G75*
G02*
X44540000Y16515000I0J150000D01*
G01*
G37*
%TD.AperFunction*%
%TO.P,U4,8*%
%TO.N,+5V*%
%TA.AperFunction,SMDPad,CuDef*%
G36*
G01*
X44540000Y17785000D02*
X44540000Y18085000D01*
G75*
G02*
X44690000Y18235000I150000J0D01*
G01*
X46340000Y18235000D01*
G75*
G02*
X46490000Y18085000I0J-150000D01*
G01*
X46490000Y17785000D01*
G75*
G02*
X46340000Y17635000I-150000J0D01*
G01*
X44690000Y17635000D01*
G75*
G02*
X44540000Y17785000I0J150000D01*
G01*
G37*
%TD.AperFunction*%
%TD*%
%TO.P,C2,1*%
%TO.N,+5V*%
%TA.AperFunction,SMDPad,CuDef*%
G36*
G01*
X23470000Y25199997D02*
X23470000Y26500003D01*
G75*
G02*
X23719997Y26750000I249997J0D01*
G01*
X24545003Y26750000D01*
G75*
G02*
X24795000Y26500003I0J-249997D01*
G01*
X24795000Y25199997D01*
G75*
G02*
X24545003Y24950000I-249997J0D01*
G01*
X23719997Y24950000D01*
G75*
G02*
X23470000Y25199997I0J249997D01*
G01*
G37*
%TD.AperFunction*%
%TO.P,C2,2*%
%TO.N,GND*%
%TA.AperFunction,SMDPad,CuDef*%
G36*
G01*
X26595000Y25199997D02*
X26595000Y26500003D01*
G75*
G02*
X26844997Y26750000I249997J0D01*
G01*
X27670003Y26750000D01*
G75*
G02*
X27920000Y26500003I0J-249997D01*
G01*
X27920000Y25199997D01*
G75*
G02*
X27670003Y24950000I-249997J0D01*
G01*
X26844997Y24950000D01*
G75*
G02*
X26595000Y25199997I0J249997D01*
G01*
G37*
%TD.AperFunction*%
%TD*%
%TO.P,J1,1*%
%TO.N,GND*%
%TA.AperFunction,ComponentPad*%
G36*
G01*
X15920000Y41704999D02*
X15920000Y43395001D01*
G75*
G02*
X16169999Y43645000I249999J0D01*
G01*
X17410001Y43645000D01*
G75*
G02*
X17660000Y43395001I0J-249999D01*
G01*
X17660000Y41704999D01*
G75*
G02*
X17410001Y41455000I-249999J0D01*
G01*
X16169999Y41455000D01*
G75*
G02*
X15920000Y41704999I0J249999D01*
G01*
G37*
%TD.AperFunction*%
D16*
%TO.P,J1,2*%
X19330000Y42550000D03*
%TO.P,J1,3*%
%TO.N,+10V*%
X21870000Y42550000D03*
%TO.P,J1,4*%
X24410000Y42550000D03*
%TD*%
%TO.P,J3,1*%
%TO.N,GND*%
%TA.AperFunction,ComponentPad*%
G36*
G01*
X74390000Y10684999D02*
X74390000Y12375001D01*
G75*
G02*
X74639999Y12625000I249999J0D01*
G01*
X75880001Y12625000D01*
G75*
G02*
X76130000Y12375001I0J-249999D01*
G01*
X76130000Y10684999D01*
G75*
G02*
X75880001Y10435000I-249999J0D01*
G01*
X74639999Y10435000D01*
G75*
G02*
X74390000Y10684999I0J249999D01*
G01*
G37*
%TD.AperFunction*%
%TO.P,J3,2*%
%TO.N,/ESP32/UART_RX0*%
X77800000Y11530000D03*
%TO.P,J3,3*%
%TO.N,/ESP32/UART_TX0*%
X80340000Y11530000D03*
%TO.P,J3,4*%
%TO.N,+3V3*%
X82880000Y11530000D03*
%TD*%
D17*
%TO.P,Q1,1*%
%TO.N,+3V3*%
X53450000Y19650000D03*
%TO.P,Q1,2*%
%TO.N,SPI_CLK*%
X53450000Y21550000D03*
%TO.P,Q1,3*%
%TO.N,Net-(Q1-Pad3)*%
X51450000Y20600000D03*
%TD*%
%TO.P,Q2,3*%
%TO.N,Net-(Q2-Pad3)*%
X57030000Y16450000D03*
%TO.P,Q2,2*%
%TO.N,SPI_MISO*%
X59030000Y17400000D03*
%TO.P,Q2,1*%
%TO.N,+3V3*%
X59030000Y15500000D03*
%TD*%
%TO.P,Q3,1*%
%TO.N,+3V3*%
X60400000Y11670000D03*
%TO.P,Q3,2*%
%TO.N,SPI_CS0*%
X60400000Y13570000D03*
%TO.P,Q3,3*%
%TO.N,Net-(Q3-Pad3)*%
X58400000Y12620000D03*
%TD*%
%TO.P,R6,1*%
%TO.N,+3V3*%
%TA.AperFunction,SMDPad,CuDef*%
G36*
G01*
X56250001Y19000000D02*
X55349999Y19000000D01*
G75*
G02*
X55100000Y19249999I0J249999D01*
G01*
X55100000Y19950001D01*
G75*
G02*
X55349999Y20200000I249999J0D01*
G01*
X56250001Y20200000D01*
G75*
G02*
X56500000Y19950001I0J-249999D01*
G01*
X56500000Y19249999D01*
G75*
G02*
X56250001Y19000000I-249999J0D01*
G01*
G37*
%TD.AperFunction*%
%TO.P,R6,2*%
%TO.N,SPI_CLK*%
%TA.AperFunction,SMDPad,CuDef*%
G36*
G01*
X56250001Y21000000D02*
X55349999Y21000000D01*
G75*
G02*
X55100000Y21249999I0J249999D01*
G01*
X55100000Y21950001D01*
G75*
G02*
X55349999Y22200000I249999J0D01*
G01*
X56250001Y22200000D01*
G75*
G02*
X56500000Y21950001I0J-249999D01*
G01*
X56500000Y21249999D01*
G75*
G02*
X56250001Y21000000I-249999J0D01*
G01*
G37*
%TD.AperFunction*%
%TD*%
%TO.P,R7,2*%
%TO.N,SPI_MISO*%
%TA.AperFunction,SMDPad,CuDef*%
G36*
G01*
X61740001Y16840000D02*
X60839999Y16840000D01*
G75*
G02*
X60590000Y17089999I0J249999D01*
G01*
X60590000Y17790001D01*
G75*
G02*
X60839999Y18040000I249999J0D01*
G01*
X61740001Y18040000D01*
G75*
G02*
X61990000Y17790001I0J-249999D01*
G01*
X61990000Y17089999D01*
G75*
G02*
X61740001Y16840000I-249999J0D01*
G01*
G37*
%TD.AperFunction*%
%TO.P,R7,1*%
%TO.N,+3V3*%
%TA.AperFunction,SMDPad,CuDef*%
G36*
G01*
X61740001Y14840000D02*
X60839999Y14840000D01*
G75*
G02*
X60590000Y15089999I0J249999D01*
G01*
X60590000Y15790001D01*
G75*
G02*
X60839999Y16040000I249999J0D01*
G01*
X61740001Y16040000D01*
G75*
G02*
X61990000Y15790001I0J-249999D01*
G01*
X61990000Y15089999D01*
G75*
G02*
X61740001Y14840000I-249999J0D01*
G01*
G37*
%TD.AperFunction*%
%TD*%
%TO.P,R8,1*%
%TO.N,+3V3*%
%TA.AperFunction,SMDPad,CuDef*%
G36*
G01*
X63800001Y10960000D02*
X62899999Y10960000D01*
G75*
G02*
X62650000Y11209999I0J249999D01*
G01*
X62650000Y11910001D01*
G75*
G02*
X62899999Y12160000I249999J0D01*
G01*
X63800001Y12160000D01*
G75*
G02*
X64050000Y11910001I0J-249999D01*
G01*
X64050000Y11209999D01*
G75*
G02*
X63800001Y10960000I-249999J0D01*
G01*
G37*
%TD.AperFunction*%
%TO.P,R8,2*%
%TO.N,SPI_CS0*%
%TA.AperFunction,SMDPad,CuDef*%
G36*
G01*
X63800001Y12960000D02*
X62899999Y12960000D01*
G75*
G02*
X62650000Y13209999I0J249999D01*
G01*
X62650000Y13910001D01*
G75*
G02*
X62899999Y14160000I249999J0D01*
G01*
X63800001Y14160000D01*
G75*
G02*
X64050000Y13910001I0J-249999D01*
G01*
X64050000Y13209999D01*
G75*
G02*
X63800001Y12960000I-249999J0D01*
G01*
G37*
%TD.AperFunction*%
%TD*%
D18*
%TO.N,+10V*%
X49595000Y3520000D03*
X48540000Y2540000D03*
X49575000Y2540000D03*
X48540000Y3530000D03*
%TO.N,GND*%
X61335000Y3880000D03*
X62370000Y3880000D03*
X60320000Y4860000D03*
X60300000Y3880000D03*
X61355000Y4860000D03*
X62390000Y4860000D03*
X14020000Y30020000D03*
X15000000Y27930000D03*
X15000000Y28965000D03*
X15000000Y30000000D03*
X14020000Y28985000D03*
X14020000Y27950000D03*
X30580000Y4010000D03*
X29565000Y4990000D03*
X29545000Y4010000D03*
X28510000Y4010000D03*
X30600000Y4990000D03*
X28530000Y4990000D03*
X9890000Y41320000D03*
X8910000Y43410000D03*
X9890000Y42355000D03*
X8910000Y42375000D03*
X9890000Y43390000D03*
X8910000Y41340000D03*
X14020000Y31090000D03*
X15000000Y31070000D03*
X8910000Y40280000D03*
X9890000Y40260000D03*
X76070000Y4970000D03*
X76050000Y3990000D03*
X75035000Y4970000D03*
X73980000Y3990000D03*
X74000000Y4970000D03*
X75015000Y3990000D03*
D19*
%TO.N,+5V*%
X54680000Y17440000D03*
X57030000Y13580000D03*
X47000000Y20100000D03*
%TO.N,+3V3*%
X57470000Y19590000D03*
X63140000Y15420000D03*
X65060000Y11470000D03*
%TO.N,SPI_CS0*%
X65980000Y15770000D03*
D18*
%TO.N,Net-(J2-Pad2)*%
X15570000Y13350000D03*
X15610000Y15430000D03*
X17770000Y15410000D03*
X17750000Y13340000D03*
%TO.N,Net-(J2-Pad1)*%
X15590000Y8310000D03*
X15630000Y10490000D03*
X17940000Y8290000D03*
X17920000Y10510000D03*
%TD*%
D20*
%TO.N,+10V*%
X21870000Y42550000D02*
X24410000Y42550000D01*
X21870000Y35000000D02*
X21820000Y34950000D01*
X21870000Y42550000D02*
X21870000Y35000000D01*
X21857500Y39997500D02*
X21857500Y37825000D01*
X21870000Y42550000D02*
X21870000Y42200000D01*
X23052500Y41192500D02*
X21857500Y39997500D01*
X22877500Y41192500D02*
X23052500Y41192500D01*
X24410000Y42550000D02*
X23052500Y41192500D01*
X23420000Y42550000D02*
X22470000Y41600000D01*
X24410000Y42550000D02*
X23420000Y42550000D01*
X22470000Y41600000D02*
X22877500Y41192500D01*
X21870000Y42200000D02*
X22470000Y41600000D01*
D21*
X48552500Y9145000D02*
X48557500Y9140000D01*
D20*
X45610000Y9220000D02*
X45595000Y9235000D01*
X48552500Y9220000D02*
X45610000Y9220000D01*
X48557500Y9215000D02*
X48552500Y9220000D01*
X48557500Y6690000D02*
X48557500Y9215000D01*
X42490000Y47422500D02*
X42502500Y47410000D01*
X42490000Y51260000D02*
X42490000Y47422500D01*
X29270000Y47410000D02*
X24410000Y42550000D01*
X42502500Y47410000D02*
X29270000Y47410000D01*
X48540000Y6672500D02*
X48557500Y6690000D01*
X48540000Y3530000D02*
X48540000Y6672500D01*
%TO.N,GND*%
X40565000Y15395000D02*
X40565000Y14125000D01*
X45030000Y47862500D02*
X44577500Y47410000D01*
X45030000Y51260000D02*
X45030000Y47862500D01*
X41207500Y22037500D02*
X40510000Y22037500D01*
X45030000Y25860000D02*
X41207500Y22037500D01*
X24845000Y8675000D02*
X28530000Y4990000D01*
X24845000Y10045000D02*
X24845000Y8675000D01*
X40255000Y5425000D02*
X39250000Y4420000D01*
X40445000Y5425000D02*
X40255000Y5425000D01*
X39250000Y4420000D02*
X36040000Y4420000D01*
X33800000Y6660000D02*
X33800000Y10502500D01*
X36040000Y4420000D02*
X33800000Y6660000D01*
%TO.N,+5V*%
X24120000Y34950000D02*
X24120000Y28650000D01*
X24120000Y25862500D02*
X24132500Y25850000D01*
X24120000Y28650000D02*
X24120000Y25862500D01*
D22*
X24857500Y13867500D02*
X24845000Y13855000D01*
D23*
X24880000Y13890000D02*
X24845000Y13855000D01*
D20*
X30670000Y19930000D02*
X31900000Y19930000D01*
X31080000Y19930000D02*
X31900000Y19930000D01*
X30052500Y19930000D02*
X32420000Y19930000D01*
X24132500Y25850000D02*
X30052500Y19930000D01*
X32420000Y19930000D02*
X40622500Y19930000D01*
X31900000Y19930000D02*
X32420000Y19930000D01*
X29265000Y19930000D02*
X30052500Y19930000D01*
X26595000Y17260000D02*
X29265000Y19930000D01*
X25870000Y17260000D02*
X26595000Y17260000D01*
X25870000Y14880000D02*
X24845000Y13855000D01*
X25870000Y17260000D02*
X25870000Y14880000D01*
X40565000Y19872500D02*
X40622500Y19930000D01*
X40565000Y17935000D02*
X40565000Y19872500D01*
X44835000Y17935000D02*
X43385000Y17935000D01*
X49140000Y21540000D02*
X48440000Y21540000D01*
X43385000Y17935000D02*
X45515000Y17935000D01*
X40565000Y17935000D02*
X43385000Y17935000D01*
X54640000Y17400000D02*
X54680000Y17440000D01*
X51780000Y17400000D02*
X54640000Y17400000D01*
X54380000Y13580000D02*
X57030000Y13580000D01*
X47000000Y20100000D02*
X44835000Y17935000D01*
X48440000Y21540000D02*
X47000000Y20100000D01*
%TO.N,Net-(C4-Pad2)*%
X28145000Y14575000D02*
X31045000Y14575000D01*
X31045000Y14575000D02*
X33845000Y14575000D01*
%TO.N,Sinal*%
X40445000Y7965000D02*
X40445000Y9235000D01*
X40550000Y16650000D02*
X40565000Y16665000D01*
X40445000Y9235000D02*
X40445000Y11245000D01*
X37230000Y14460000D02*
X37230000Y16650000D01*
X40445000Y11245000D02*
X37230000Y14460000D01*
X37230000Y16650000D02*
X40550000Y16650000D01*
X33845000Y16650000D02*
X37230000Y16650000D01*
%TO.N,Net-(C5-Pad1)*%
X33797500Y12575000D02*
X33800000Y12577500D01*
X31045000Y12575000D02*
X33797500Y12575000D01*
X38385000Y6695000D02*
X40445000Y6695000D01*
X37240000Y7840000D02*
X38385000Y6695000D01*
X37240000Y11110000D02*
X37240000Y7840000D01*
X35772500Y12577500D02*
X37240000Y11110000D01*
X33800000Y12577500D02*
X35772500Y12577500D01*
%TO.N,+3V3*%
X55750000Y19650000D02*
X55800000Y19600000D01*
X53450000Y19650000D02*
X55750000Y19650000D01*
X57460000Y19600000D02*
X57470000Y19590000D01*
X55800000Y19600000D02*
X57460000Y19600000D01*
X59040000Y15510000D02*
X59030000Y15500000D01*
X61230000Y15500000D02*
X61290000Y15440000D01*
X59030000Y15500000D02*
X61230000Y15500000D01*
X63120000Y15440000D02*
X63140000Y15420000D01*
X61290000Y15440000D02*
X63120000Y15440000D01*
X63240000Y11670000D02*
X63350000Y11560000D01*
X60400000Y11670000D02*
X63240000Y11670000D01*
X64970000Y11560000D02*
X65060000Y11470000D01*
X63350000Y11560000D02*
X64970000Y11560000D01*
X82880000Y11530000D02*
X82880000Y9830000D01*
X82880000Y9830000D02*
X81780000Y8730000D01*
X67800000Y8730000D02*
X65060000Y11470000D01*
X81780000Y8730000D02*
X67800000Y8730000D01*
D21*
%TO.N,Net-(R1-Pad2)*%
X28135000Y12585000D02*
X28145000Y12575000D01*
D20*
X24845000Y12585000D02*
X24845000Y12595000D01*
X24865000Y12575000D02*
X28145000Y12575000D01*
X24845000Y12595000D02*
X24865000Y12575000D01*
%TO.N,SPI_CLK*%
X55750000Y21550000D02*
X55800000Y21600000D01*
X53450000Y21550000D02*
X55750000Y21550000D01*
X58550000Y21600000D02*
X62810000Y25860000D01*
X55800000Y21600000D02*
X58550000Y21600000D01*
%TO.N,SPI_MISO*%
X59030000Y19540000D02*
X65350000Y25860000D01*
X59030000Y17400000D02*
X59030000Y19540000D01*
X61250000Y17400000D02*
X61290000Y17440000D01*
X59030000Y17400000D02*
X61250000Y17400000D01*
%TO.N,SPI_CS0*%
X60400000Y13570000D02*
X63340000Y13570000D01*
D23*
X63350000Y13560000D02*
X63340000Y13570000D01*
D20*
X63770000Y13560000D02*
X65980000Y15770000D01*
X63350000Y13560000D02*
X63770000Y13560000D01*
D21*
%TO.N,Net-(J2-Pad2)*%
X19350000Y14400000D02*
X19895000Y13855000D01*
X12620000Y14400000D02*
X19350000Y14400000D01*
X19895000Y13855000D02*
X19895000Y12585000D01*
%TO.N,Net-(J2-Pad1)*%
X19895000Y11315000D02*
X19895000Y10045000D01*
X12620000Y9400000D02*
X12860000Y9400000D01*
X12860000Y9400000D02*
X12870000Y9410000D01*
X19260000Y9410000D02*
X19895000Y10045000D01*
X12870000Y9410000D02*
X19260000Y9410000D01*
D20*
%TO.N,/ESP32/UART_RX0*%
X70430000Y25860000D02*
X70430000Y25590000D01*
X77800000Y18220000D02*
X77800000Y11530000D01*
X70430000Y25590000D02*
X77800000Y18220000D01*
%TO.N,/ESP32/UART_TX0*%
X80340000Y18490000D02*
X80340000Y11530000D01*
X72970000Y25860000D02*
X80340000Y18490000D01*
%TO.N,Net-(Q1-Pad3)*%
X49140000Y19315000D02*
X49140000Y19540000D01*
X46490000Y16665000D02*
X49140000Y19315000D01*
X45515000Y16665000D02*
X46490000Y16665000D01*
X50390000Y19540000D02*
X49140000Y19540000D01*
X51450000Y20600000D02*
X50390000Y19540000D01*
D21*
%TO.N,Net-(Q2-Pad3)*%
X45515000Y15395000D02*
X46025000Y15395000D01*
D20*
X45520000Y15400000D02*
X45515000Y15395000D01*
X51780000Y15400000D02*
X45520000Y15400000D01*
X55980000Y15400000D02*
X57030000Y16450000D01*
X51780000Y15400000D02*
X55980000Y15400000D01*
D22*
%TO.N,Net-(Q3-Pad3)*%
X45530000Y14140000D02*
X45515000Y14125000D01*
D20*
X48060000Y11580000D02*
X54380000Y11580000D01*
X45515000Y14125000D02*
X48060000Y11580000D01*
X57360000Y11580000D02*
X58400000Y12620000D01*
X54380000Y11580000D02*
X57360000Y11580000D01*
%TD*%
D24*
%TO.N,Net-(J2-Pad2)*%
X21026925Y12337000D02*
X7511757Y12337000D01*
X7507000Y13799776D01*
X7507000Y18233000D01*
X20969403Y18233000D01*
X21026925Y12337000D01*
%TA.AperFunction,Conductor*%
D25*
G36*
X21026925Y12337000D02*
G01*
X7511757Y12337000D01*
X7507000Y13799776D01*
X7507000Y18233000D01*
X20969403Y18233000D01*
X21026925Y12337000D01*
G37*
%TD.AperFunction*%
%TD*%
D24*
%TO.N,Net-(J2-Pad1)*%
X21023022Y5677000D02*
X7507854Y5677000D01*
X7507000Y5939605D01*
X7507000Y11573000D01*
X20965500Y11573000D01*
X21023022Y5677000D01*
%TA.AperFunction,Conductor*%
D25*
G36*
X21023022Y5677000D02*
G01*
X7507854Y5677000D01*
X7507000Y5939605D01*
X7507000Y11573000D01*
X20965500Y11573000D01*
X21023022Y5677000D01*
G37*
%TD.AperFunction*%
%TD*%
D24*
%TO.N,+10V*%
X50013000Y2157000D02*
X48107000Y2157000D01*
X48107000Y3883000D01*
X50013000Y3883000D01*
X50013000Y2157000D01*
%TA.AperFunction,Conductor*%
D25*
G36*
X50013000Y2157000D02*
G01*
X48107000Y2157000D01*
X48107000Y3883000D01*
X50013000Y3883000D01*
X50013000Y2157000D01*
G37*
%TD.AperFunction*%
%TD*%
D24*
%TO.N,GND*%
X43416421Y16261669D02*
X43486697Y16030000D01*
X43416421Y15798331D01*
X43391470Y15545000D01*
X43391470Y15245000D01*
X43416421Y14991669D01*
X43486697Y14760000D01*
X43416421Y14528331D01*
X43391470Y14275000D01*
X43391470Y13975000D01*
X43416421Y13721669D01*
X43490315Y13478074D01*
X43610312Y13253575D01*
X43771801Y13056801D01*
X43968575Y12895312D01*
X44193074Y12775315D01*
X44436669Y12701421D01*
X44634513Y12681935D01*
X46453447Y10863000D01*
X45827999Y10863000D01*
X45595000Y10885948D01*
X45272916Y10854226D01*
X44963210Y10760278D01*
X44808247Y10677448D01*
X44616669Y10658579D01*
X44373074Y10584685D01*
X44148575Y10464688D01*
X43951801Y10303199D01*
X43790312Y10106425D01*
X43670315Y9881926D01*
X43596421Y9638331D01*
X43571470Y9385000D01*
X43571470Y9085000D01*
X43596421Y8831669D01*
X43666697Y8600000D01*
X43596421Y8368331D01*
X43571470Y8115000D01*
X43571470Y7815000D01*
X43596421Y7561669D01*
X43666697Y7330000D01*
X43596421Y7098331D01*
X43571470Y6845000D01*
X43571470Y6545000D01*
X43596421Y6291669D01*
X43666697Y6060000D01*
X43596421Y5828331D01*
X43571470Y5575000D01*
X43571470Y5275000D01*
X43596421Y5021669D01*
X43670315Y4778074D01*
X43790312Y4553575D01*
X43951801Y4356801D01*
X44148575Y4195312D01*
X44373074Y4075315D01*
X44616669Y4001421D01*
X44870000Y3976470D01*
X46320000Y3976470D01*
X46573331Y4001421D01*
X46816926Y4075315D01*
X46844906Y4090270D01*
X46837000Y4010000D01*
X46837000Y2030000D01*
X46858962Y1807012D01*
X46924006Y1592593D01*
X47029630Y1394983D01*
X47171777Y1221777D01*
X47237304Y1168000D01*
X23887000Y1168000D01*
X23887000Y5009750D01*
X23891643Y5024927D01*
X23894143Y5049698D01*
X23903793Y9107079D01*
X24559250Y9110000D01*
X24718000Y9268750D01*
X24718000Y9866470D01*
X24972000Y9866470D01*
X24972000Y9268750D01*
X25130750Y9110000D01*
X25820000Y9106928D01*
X25944482Y9119188D01*
X26064180Y9155498D01*
X26174494Y9214463D01*
X26271185Y9293815D01*
X26350537Y9390506D01*
X26409502Y9500820D01*
X26445812Y9620518D01*
X26458072Y9745000D01*
X26455000Y9759250D01*
X26299250Y9915000D01*
X32436928Y9915000D01*
X32449188Y9790518D01*
X32485498Y9670820D01*
X32544463Y9560506D01*
X32623815Y9463815D01*
X32720506Y9384463D01*
X32830820Y9325498D01*
X32950518Y9289188D01*
X33075000Y9276928D01*
X33514250Y9280000D01*
X33673000Y9438750D01*
X33673000Y10375500D01*
X33927000Y10375500D01*
X33927000Y9438750D01*
X34085750Y9280000D01*
X34525000Y9276928D01*
X34649482Y9289188D01*
X34769180Y9325498D01*
X34879494Y9384463D01*
X34976185Y9463815D01*
X35055537Y9560506D01*
X35114502Y9670820D01*
X35150812Y9790518D01*
X35163072Y9915000D01*
X35160000Y10216750D01*
X35001250Y10375500D01*
X33927000Y10375500D01*
X33673000Y10375500D01*
X32598750Y10375500D01*
X32440000Y10216750D01*
X32436928Y9915000D01*
X26299250Y9915000D01*
X26296250Y9918000D01*
X26010950Y9918000D01*
X26166926Y9965315D01*
X26391425Y10085312D01*
X26588199Y10246801D01*
X26749688Y10443575D01*
X26869685Y10668074D01*
X26943579Y10911669D01*
X26945581Y10932000D01*
X27162861Y10932000D01*
X27422160Y10853342D01*
X27694999Y10826470D01*
X28595001Y10826470D01*
X28867840Y10853342D01*
X29130195Y10932927D01*
X29371982Y11062165D01*
X29583910Y11236090D01*
X29595000Y11249603D01*
X29606090Y11236090D01*
X29818018Y11062165D01*
X30059805Y10932927D01*
X30322160Y10853342D01*
X30594999Y10826470D01*
X31495001Y10826470D01*
X31767840Y10853342D01*
X32027139Y10932000D01*
X32438537Y10932000D01*
X32440000Y10788250D01*
X32598750Y10629500D01*
X33673000Y10629500D01*
X33673000Y10649500D01*
X33927000Y10649500D01*
X33927000Y10629500D01*
X35001250Y10629500D01*
X35160000Y10788250D01*
X35160788Y10865660D01*
X35597000Y10429448D01*
X35597001Y7920708D01*
X35589052Y7840000D01*
X35620774Y7517916D01*
X35714722Y7208210D01*
X35748492Y7145032D01*
X35867287Y6922782D01*
X35954100Y6817000D01*
X36006455Y6753206D01*
X36072604Y6672603D01*
X36135290Y6621157D01*
X37166157Y5590290D01*
X37217603Y5527603D01*
X37280290Y5476157D01*
X37280291Y5476156D01*
X37309899Y5451857D01*
X37467782Y5322286D01*
X37753209Y5169722D01*
X38062916Y5075774D01*
X38385000Y5044051D01*
X38465706Y5052000D01*
X38939118Y5052000D01*
X38944188Y5000518D01*
X38980498Y4880820D01*
X39039463Y4770506D01*
X39118815Y4673815D01*
X39215506Y4594463D01*
X39325820Y4535498D01*
X39445518Y4499188D01*
X39570000Y4486928D01*
X40159250Y4490000D01*
X40318000Y4648750D01*
X40318000Y5052000D01*
X40525706Y5052000D01*
X40572000Y5056560D01*
X40572000Y4648750D01*
X40730750Y4490000D01*
X41320000Y4486928D01*
X41444482Y4499188D01*
X41564180Y4535498D01*
X41674494Y4594463D01*
X41771185Y4673815D01*
X41850537Y4770506D01*
X41909502Y4880820D01*
X41945812Y5000518D01*
X41958072Y5125000D01*
X41955000Y5139250D01*
X41796250Y5298000D01*
X41510950Y5298000D01*
X41666926Y5345315D01*
X41891425Y5465312D01*
X42088199Y5626801D01*
X42249688Y5823575D01*
X42369685Y6048074D01*
X42443579Y6291669D01*
X42468530Y6545000D01*
X42468530Y6845000D01*
X42443579Y7098331D01*
X42373303Y7330000D01*
X42443579Y7561669D01*
X42468530Y7815000D01*
X42468530Y8115000D01*
X42443579Y8368331D01*
X42373303Y8600000D01*
X42443579Y8831669D01*
X42468530Y9085000D01*
X42468530Y9385000D01*
X42443579Y9638331D01*
X42369685Y9881926D01*
X42249688Y10106425D01*
X42088199Y10303199D01*
X42088000Y10303362D01*
X42088000Y11164301D01*
X42095948Y11245000D01*
X42088000Y11325699D01*
X42088000Y11325706D01*
X42064226Y11567084D01*
X42059729Y11581911D01*
X41970278Y11876791D01*
X41948290Y11917927D01*
X41817714Y12162218D01*
X41680247Y12329722D01*
X41663844Y12349709D01*
X41663843Y12349710D01*
X41612397Y12412397D01*
X41549710Y12463843D01*
X40692002Y13321551D01*
X40692002Y13348748D01*
X40850750Y13190000D01*
X41540000Y13186928D01*
X41664482Y13199188D01*
X41784180Y13235498D01*
X41894494Y13294463D01*
X41991185Y13373815D01*
X42070537Y13470506D01*
X42129502Y13580820D01*
X42165812Y13700518D01*
X42178072Y13825000D01*
X42175000Y13839250D01*
X42016250Y13998000D01*
X40692000Y13998000D01*
X40692000Y13978000D01*
X40438000Y13978000D01*
X40438000Y13998000D01*
X40418000Y13998000D01*
X40418000Y14252000D01*
X40438000Y14252000D01*
X40438000Y14272000D01*
X40692000Y14272000D01*
X40692000Y14252000D01*
X42016250Y14252000D01*
X42175000Y14410750D01*
X42178072Y14425000D01*
X42165812Y14549482D01*
X42129502Y14669180D01*
X42080957Y14760000D01*
X42129502Y14850820D01*
X42165812Y14970518D01*
X42178072Y15095000D01*
X42175000Y15109250D01*
X42016250Y15268000D01*
X41730950Y15268000D01*
X41886926Y15315315D01*
X42111425Y15435312D01*
X42308199Y15596801D01*
X42469688Y15793575D01*
X42589685Y16018074D01*
X42663579Y16261669D01*
X42666566Y16292000D01*
X43413434Y16292000D01*
X43416421Y16261669D01*
%TA.AperFunction,Conductor*%
D25*
G36*
X43416421Y16261669D02*
G01*
X43486697Y16030000D01*
X43416421Y15798331D01*
X43391470Y15545000D01*
X43391470Y15245000D01*
X43416421Y14991669D01*
X43486697Y14760000D01*
X43416421Y14528331D01*
X43391470Y14275000D01*
X43391470Y13975000D01*
X43416421Y13721669D01*
X43490315Y13478074D01*
X43610312Y13253575D01*
X43771801Y13056801D01*
X43968575Y12895312D01*
X44193074Y12775315D01*
X44436669Y12701421D01*
X44634513Y12681935D01*
X46453447Y10863000D01*
X45827999Y10863000D01*
X45595000Y10885948D01*
X45272916Y10854226D01*
X44963210Y10760278D01*
X44808247Y10677448D01*
X44616669Y10658579D01*
X44373074Y10584685D01*
X44148575Y10464688D01*
X43951801Y10303199D01*
X43790312Y10106425D01*
X43670315Y9881926D01*
X43596421Y9638331D01*
X43571470Y9385000D01*
X43571470Y9085000D01*
X43596421Y8831669D01*
X43666697Y8600000D01*
X43596421Y8368331D01*
X43571470Y8115000D01*
X43571470Y7815000D01*
X43596421Y7561669D01*
X43666697Y7330000D01*
X43596421Y7098331D01*
X43571470Y6845000D01*
X43571470Y6545000D01*
X43596421Y6291669D01*
X43666697Y6060000D01*
X43596421Y5828331D01*
X43571470Y5575000D01*
X43571470Y5275000D01*
X43596421Y5021669D01*
X43670315Y4778074D01*
X43790312Y4553575D01*
X43951801Y4356801D01*
X44148575Y4195312D01*
X44373074Y4075315D01*
X44616669Y4001421D01*
X44870000Y3976470D01*
X46320000Y3976470D01*
X46573331Y4001421D01*
X46816926Y4075315D01*
X46844906Y4090270D01*
X46837000Y4010000D01*
X46837000Y2030000D01*
X46858962Y1807012D01*
X46924006Y1592593D01*
X47029630Y1394983D01*
X47171777Y1221777D01*
X47237304Y1168000D01*
X23887000Y1168000D01*
X23887000Y5009750D01*
X23891643Y5024927D01*
X23894143Y5049698D01*
X23903793Y9107079D01*
X24559250Y9110000D01*
X24718000Y9268750D01*
X24718000Y9866470D01*
X24972000Y9866470D01*
X24972000Y9268750D01*
X25130750Y9110000D01*
X25820000Y9106928D01*
X25944482Y9119188D01*
X26064180Y9155498D01*
X26174494Y9214463D01*
X26271185Y9293815D01*
X26350537Y9390506D01*
X26409502Y9500820D01*
X26445812Y9620518D01*
X26458072Y9745000D01*
X26455000Y9759250D01*
X26299250Y9915000D01*
X32436928Y9915000D01*
X32449188Y9790518D01*
X32485498Y9670820D01*
X32544463Y9560506D01*
X32623815Y9463815D01*
X32720506Y9384463D01*
X32830820Y9325498D01*
X32950518Y9289188D01*
X33075000Y9276928D01*
X33514250Y9280000D01*
X33673000Y9438750D01*
X33673000Y10375500D01*
X33927000Y10375500D01*
X33927000Y9438750D01*
X34085750Y9280000D01*
X34525000Y9276928D01*
X34649482Y9289188D01*
X34769180Y9325498D01*
X34879494Y9384463D01*
X34976185Y9463815D01*
X35055537Y9560506D01*
X35114502Y9670820D01*
X35150812Y9790518D01*
X35163072Y9915000D01*
X35160000Y10216750D01*
X35001250Y10375500D01*
X33927000Y10375500D01*
X33673000Y10375500D01*
X32598750Y10375500D01*
X32440000Y10216750D01*
X32436928Y9915000D01*
X26299250Y9915000D01*
X26296250Y9918000D01*
X26010950Y9918000D01*
X26166926Y9965315D01*
X26391425Y10085312D01*
X26588199Y10246801D01*
X26749688Y10443575D01*
X26869685Y10668074D01*
X26943579Y10911669D01*
X26945581Y10932000D01*
X27162861Y10932000D01*
X27422160Y10853342D01*
X27694999Y10826470D01*
X28595001Y10826470D01*
X28867840Y10853342D01*
X29130195Y10932927D01*
X29371982Y11062165D01*
X29583910Y11236090D01*
X29595000Y11249603D01*
X29606090Y11236090D01*
X29818018Y11062165D01*
X30059805Y10932927D01*
X30322160Y10853342D01*
X30594999Y10826470D01*
X31495001Y10826470D01*
X31767840Y10853342D01*
X32027139Y10932000D01*
X32438537Y10932000D01*
X32440000Y10788250D01*
X32598750Y10629500D01*
X33673000Y10629500D01*
X33673000Y10649500D01*
X33927000Y10649500D01*
X33927000Y10629500D01*
X35001250Y10629500D01*
X35160000Y10788250D01*
X35160788Y10865660D01*
X35597000Y10429448D01*
X35597001Y7920708D01*
X35589052Y7840000D01*
X35620774Y7517916D01*
X35714722Y7208210D01*
X35748492Y7145032D01*
X35867287Y6922782D01*
X35954100Y6817000D01*
X36006455Y6753206D01*
X36072604Y6672603D01*
X36135290Y6621157D01*
X37166157Y5590290D01*
X37217603Y5527603D01*
X37280290Y5476157D01*
X37280291Y5476156D01*
X37309899Y5451857D01*
X37467782Y5322286D01*
X37753209Y5169722D01*
X38062916Y5075774D01*
X38385000Y5044051D01*
X38465706Y5052000D01*
X38939118Y5052000D01*
X38944188Y5000518D01*
X38980498Y4880820D01*
X39039463Y4770506D01*
X39118815Y4673815D01*
X39215506Y4594463D01*
X39325820Y4535498D01*
X39445518Y4499188D01*
X39570000Y4486928D01*
X40159250Y4490000D01*
X40318000Y4648750D01*
X40318000Y5052000D01*
X40525706Y5052000D01*
X40572000Y5056560D01*
X40572000Y4648750D01*
X40730750Y4490000D01*
X41320000Y4486928D01*
X41444482Y4499188D01*
X41564180Y4535498D01*
X41674494Y4594463D01*
X41771185Y4673815D01*
X41850537Y4770506D01*
X41909502Y4880820D01*
X41945812Y5000518D01*
X41958072Y5125000D01*
X41955000Y5139250D01*
X41796250Y5298000D01*
X41510950Y5298000D01*
X41666926Y5345315D01*
X41891425Y5465312D01*
X42088199Y5626801D01*
X42249688Y5823575D01*
X42369685Y6048074D01*
X42443579Y6291669D01*
X42468530Y6545000D01*
X42468530Y6845000D01*
X42443579Y7098331D01*
X42373303Y7330000D01*
X42443579Y7561669D01*
X42468530Y7815000D01*
X42468530Y8115000D01*
X42443579Y8368331D01*
X42373303Y8600000D01*
X42443579Y8831669D01*
X42468530Y9085000D01*
X42468530Y9385000D01*
X42443579Y9638331D01*
X42369685Y9881926D01*
X42249688Y10106425D01*
X42088199Y10303199D01*
X42088000Y10303362D01*
X42088000Y11164301D01*
X42095948Y11245000D01*
X42088000Y11325699D01*
X42088000Y11325706D01*
X42064226Y11567084D01*
X42059729Y11581911D01*
X41970278Y11876791D01*
X41948290Y11917927D01*
X41817714Y12162218D01*
X41680247Y12329722D01*
X41663844Y12349709D01*
X41663843Y12349710D01*
X41612397Y12412397D01*
X41549710Y12463843D01*
X40692002Y13321551D01*
X40692002Y13348748D01*
X40850750Y13190000D01*
X41540000Y13186928D01*
X41664482Y13199188D01*
X41784180Y13235498D01*
X41894494Y13294463D01*
X41991185Y13373815D01*
X42070537Y13470506D01*
X42129502Y13580820D01*
X42165812Y13700518D01*
X42178072Y13825000D01*
X42175000Y13839250D01*
X42016250Y13998000D01*
X40692000Y13998000D01*
X40692000Y13978000D01*
X40438000Y13978000D01*
X40438000Y13998000D01*
X40418000Y13998000D01*
X40418000Y14252000D01*
X40438000Y14252000D01*
X40438000Y14272000D01*
X40692000Y14272000D01*
X40692000Y14252000D01*
X42016250Y14252000D01*
X42175000Y14410750D01*
X42178072Y14425000D01*
X42165812Y14549482D01*
X42129502Y14669180D01*
X42080957Y14760000D01*
X42129502Y14850820D01*
X42165812Y14970518D01*
X42178072Y15095000D01*
X42175000Y15109250D01*
X42016250Y15268000D01*
X41730950Y15268000D01*
X41886926Y15315315D01*
X42111425Y15435312D01*
X42308199Y15596801D01*
X42469688Y15793575D01*
X42589685Y16018074D01*
X42663579Y16261669D01*
X42666566Y16292000D01*
X43413434Y16292000D01*
X43416421Y16261669D01*
G37*
%TD.AperFunction*%
D24*
X88272000Y1168000D02*
X50882696Y1168000D01*
X50948223Y1221777D01*
X51090370Y1394983D01*
X51195994Y1592593D01*
X51261038Y1807012D01*
X51283000Y2030000D01*
X51283000Y4010000D01*
X51261038Y4232988D01*
X51195994Y4447407D01*
X51090370Y4645017D01*
X50948223Y4818223D01*
X50775017Y4960370D01*
X50577407Y5065994D01*
X50362988Y5131038D01*
X50183000Y5148765D01*
X50183000Y5328333D01*
X50346750Y5330000D01*
X50505500Y5488750D01*
X50505500Y6563000D01*
X50759500Y6563000D01*
X50759500Y5488750D01*
X50918250Y5330000D01*
X51220000Y5326928D01*
X51344482Y5339188D01*
X51464180Y5375498D01*
X51574494Y5434463D01*
X51671185Y5513815D01*
X51750537Y5610506D01*
X51809502Y5720820D01*
X51845812Y5840518D01*
X51858072Y5965000D01*
X51855000Y6404250D01*
X51696250Y6563000D01*
X50759500Y6563000D01*
X50505500Y6563000D01*
X50485500Y6563000D01*
X50485500Y6817000D01*
X50505500Y6817000D01*
X50505500Y7891250D01*
X50439250Y7957500D01*
X50500500Y8018750D01*
X50500500Y9093000D01*
X50754500Y9093000D01*
X50754500Y8018750D01*
X50820750Y7952500D01*
X50759500Y7891250D01*
X50759500Y6817000D01*
X51696250Y6817000D01*
X51855000Y6975750D01*
X51858072Y7415000D01*
X51845812Y7539482D01*
X51809502Y7659180D01*
X51750537Y7769494D01*
X51671185Y7866185D01*
X51574494Y7945537D01*
X51554290Y7956336D01*
X51569494Y7964463D01*
X51666185Y8043815D01*
X51745537Y8140506D01*
X51804502Y8250820D01*
X51840812Y8370518D01*
X51853072Y8495000D01*
X51850000Y8934250D01*
X51691250Y9093000D01*
X50754500Y9093000D01*
X50500500Y9093000D01*
X50480500Y9093000D01*
X50480500Y9347000D01*
X50500500Y9347000D01*
X50500500Y9367000D01*
X50754500Y9367000D01*
X50754500Y9347000D01*
X51691250Y9347000D01*
X51850000Y9505750D01*
X51853016Y9937000D01*
X53397861Y9937000D01*
X53657160Y9858342D01*
X53929999Y9831470D01*
X54830001Y9831470D01*
X55102840Y9858342D01*
X55362139Y9937000D01*
X57279301Y9937000D01*
X57360000Y9929052D01*
X57440699Y9937000D01*
X57440706Y9937000D01*
X57682084Y9960774D01*
X57991791Y10054722D01*
X58277218Y10207286D01*
X58527397Y10412603D01*
X58578848Y10475296D01*
X58904618Y10801066D01*
X58995032Y10631911D01*
X59137867Y10457867D01*
X59311911Y10315032D01*
X59510477Y10208897D01*
X59725933Y10143539D01*
X59794310Y10136804D01*
X60077916Y10050774D01*
X60319294Y10027000D01*
X62160744Y10027000D01*
X62364805Y9917927D01*
X62627160Y9838342D01*
X62899999Y9811470D01*
X63800001Y9811470D01*
X64072840Y9838342D01*
X64287376Y9903421D01*
X64314093Y9892355D01*
X66581157Y7625290D01*
X66632603Y7562603D01*
X66882782Y7357286D01*
X67012656Y7287867D01*
X67168209Y7204722D01*
X67477915Y7110774D01*
X67510906Y7107525D01*
X67719294Y7087000D01*
X67719300Y7087000D01*
X67799999Y7079052D01*
X67880698Y7087000D01*
X81699301Y7087000D01*
X81780000Y7079052D01*
X81860699Y7087000D01*
X81860706Y7087000D01*
X82102084Y7110774D01*
X82411791Y7204722D01*
X82697218Y7357286D01*
X82947397Y7562603D01*
X82998848Y7625296D01*
X83984704Y8611152D01*
X84047397Y8662603D01*
X84252714Y8912782D01*
X84405278Y9198209D01*
X84411888Y9220000D01*
X84499226Y9507915D01*
X84512071Y9638331D01*
X84523000Y9749294D01*
X84523000Y9749301D01*
X84530948Y9830000D01*
X84523000Y9910699D01*
X84523000Y10133891D01*
X84561847Y10181226D01*
X84748768Y10530931D01*
X84863874Y10910384D01*
X84893000Y11206108D01*
X84893000Y11853893D01*
X84863874Y12149617D01*
X84748768Y12529069D01*
X84561847Y12878774D01*
X84310293Y13185293D01*
X84003774Y13436847D01*
X83654068Y13623768D01*
X83274616Y13738874D01*
X82880000Y13777740D01*
X82485383Y13738874D01*
X82105931Y13623768D01*
X81983000Y13558060D01*
X81983000Y18409301D01*
X81990948Y18490000D01*
X81983000Y18570699D01*
X81983000Y18570706D01*
X81959226Y18812084D01*
X81955220Y18825292D01*
X81865278Y19121791D01*
X81850986Y19148530D01*
X81712714Y19407218D01*
X81507397Y19657397D01*
X81444711Y19708842D01*
X76748814Y24404738D01*
X76780000Y24435924D01*
X76835634Y24380290D01*
X77147644Y24171811D01*
X77494332Y24028209D01*
X77862374Y23955000D01*
X78237626Y23955000D01*
X78605668Y24028209D01*
X78952356Y24171811D01*
X79264366Y24380290D01*
X79529710Y24645634D01*
X79738189Y24957644D01*
X79881791Y25304332D01*
X79955000Y25672374D01*
X79955000Y26047626D01*
X79881791Y26415668D01*
X79738189Y26762356D01*
X79529710Y27074366D01*
X79264366Y27339710D01*
X78952356Y27548189D01*
X78605668Y27691791D01*
X78237626Y27765000D01*
X77862374Y27765000D01*
X77494332Y27691791D01*
X77147644Y27548189D01*
X76835634Y27339710D01*
X76780000Y27284076D01*
X76724366Y27339710D01*
X76412356Y27548189D01*
X76065668Y27691791D01*
X75697626Y27765000D01*
X75322374Y27765000D01*
X74954332Y27691791D01*
X74607644Y27548189D01*
X74295634Y27339710D01*
X74240000Y27284076D01*
X74184366Y27339710D01*
X73872356Y27548189D01*
X73525668Y27691791D01*
X73157626Y27765000D01*
X72782374Y27765000D01*
X72414332Y27691791D01*
X72067644Y27548189D01*
X71755634Y27339710D01*
X71700000Y27284076D01*
X71644366Y27339710D01*
X71332356Y27548189D01*
X70985668Y27691791D01*
X70617626Y27765000D01*
X70242374Y27765000D01*
X69874332Y27691791D01*
X69527644Y27548189D01*
X69215634Y27339710D01*
X69160000Y27284076D01*
X69104366Y27339710D01*
X68792356Y27548189D01*
X68445668Y27691791D01*
X68077626Y27765000D01*
X67702374Y27765000D01*
X67334332Y27691791D01*
X66987644Y27548189D01*
X66675634Y27339710D01*
X66620000Y27284076D01*
X66564366Y27339710D01*
X66252356Y27548189D01*
X65905668Y27691791D01*
X65537626Y27765000D01*
X65162374Y27765000D01*
X64794332Y27691791D01*
X64447644Y27548189D01*
X64135634Y27339710D01*
X64080000Y27284076D01*
X64024366Y27339710D01*
X63712356Y27548189D01*
X63365668Y27691791D01*
X62997626Y27765000D01*
X62622374Y27765000D01*
X62254332Y27691791D01*
X61907644Y27548189D01*
X61595634Y27339710D01*
X61540000Y27284076D01*
X61484366Y27339710D01*
X61172356Y27548189D01*
X60825668Y27691791D01*
X60457626Y27765000D01*
X60082374Y27765000D01*
X59714332Y27691791D01*
X59367644Y27548189D01*
X59055634Y27339710D01*
X59000000Y27284076D01*
X58944366Y27339710D01*
X58632356Y27548189D01*
X58285668Y27691791D01*
X57917626Y27765000D01*
X57542374Y27765000D01*
X57174332Y27691791D01*
X56827644Y27548189D01*
X56515634Y27339710D01*
X56460000Y27284076D01*
X56404366Y27339710D01*
X56092356Y27548189D01*
X55745668Y27691791D01*
X55377626Y27765000D01*
X55002374Y27765000D01*
X54634332Y27691791D01*
X54287644Y27548189D01*
X53975634Y27339710D01*
X53920000Y27284076D01*
X53864366Y27339710D01*
X53552356Y27548189D01*
X53205668Y27691791D01*
X52837626Y27765000D01*
X52462374Y27765000D01*
X52094332Y27691791D01*
X51747644Y27548189D01*
X51435634Y27339710D01*
X51380000Y27284076D01*
X51324366Y27339710D01*
X51012356Y27548189D01*
X50665668Y27691791D01*
X50297626Y27765000D01*
X49922374Y27765000D01*
X49554332Y27691791D01*
X49207644Y27548189D01*
X48895634Y27339710D01*
X48840000Y27284076D01*
X48784366Y27339710D01*
X48472356Y27548189D01*
X48125668Y27691791D01*
X47757626Y27765000D01*
X47382374Y27765000D01*
X47014332Y27691791D01*
X46667644Y27548189D01*
X46355634Y27339710D01*
X46090290Y27074366D01*
X45974008Y26900338D01*
X45932369Y26941977D01*
X45815959Y26825567D01*
X45748980Y27065656D01*
X45499952Y27182756D01*
X45232865Y27249023D01*
X44957983Y27261910D01*
X44685867Y27220922D01*
X44426977Y27127636D01*
X44311020Y27065656D01*
X44244041Y26825567D01*
X44127631Y26941977D01*
X44085992Y26900338D01*
X43969710Y27074366D01*
X43704366Y27339710D01*
X43392356Y27548189D01*
X43045668Y27691791D01*
X42677626Y27765000D01*
X42302374Y27765000D01*
X41934332Y27691791D01*
X41587644Y27548189D01*
X41275634Y27339710D01*
X41010290Y27074366D01*
X40801811Y26762356D01*
X40658209Y26415668D01*
X40585000Y26047626D01*
X40585000Y25672374D01*
X40658209Y25304332D01*
X40801811Y24957644D01*
X41010290Y24645634D01*
X41275634Y24380290D01*
X41587644Y24171811D01*
X41934332Y24028209D01*
X42302374Y23955000D01*
X42677626Y23955000D01*
X43045668Y24028209D01*
X43392356Y24171811D01*
X43704366Y24380290D01*
X43969710Y24645634D01*
X44085992Y24819662D01*
X44127631Y24778023D01*
X44244041Y24894433D01*
X44311020Y24654344D01*
X44560048Y24537244D01*
X44827135Y24470977D01*
X45102017Y24458090D01*
X45374133Y24499078D01*
X45633023Y24592364D01*
X45748980Y24654344D01*
X45815959Y24894433D01*
X45932369Y24778023D01*
X45974008Y24819662D01*
X46090290Y24645634D01*
X46355634Y24380290D01*
X46667644Y24171811D01*
X47014332Y24028209D01*
X47382374Y23955000D01*
X47757626Y23955000D01*
X48125668Y24028209D01*
X48472356Y24171811D01*
X48784366Y24380290D01*
X48840000Y24435924D01*
X48895634Y24380290D01*
X49207644Y24171811D01*
X49554332Y24028209D01*
X49922374Y23955000D01*
X50297626Y23955000D01*
X50665668Y24028209D01*
X51012356Y24171811D01*
X51324366Y24380290D01*
X51380000Y24435924D01*
X51435634Y24380290D01*
X51747644Y24171811D01*
X52094332Y24028209D01*
X52462374Y23955000D01*
X52837626Y23955000D01*
X53205668Y24028209D01*
X53552356Y24171811D01*
X53864366Y24380290D01*
X53920000Y24435924D01*
X53975634Y24380290D01*
X54287644Y24171811D01*
X54634332Y24028209D01*
X55002374Y23955000D01*
X55377626Y23955000D01*
X55745668Y24028209D01*
X56092356Y24171811D01*
X56404366Y24380290D01*
X56460000Y24435924D01*
X56515634Y24380290D01*
X56827644Y24171811D01*
X57174332Y24028209D01*
X57542374Y23955000D01*
X57917626Y23955000D01*
X58285668Y24028209D01*
X58632356Y24171811D01*
X58944366Y24380290D01*
X59000000Y24435924D01*
X59031186Y24404738D01*
X57869448Y23243000D01*
X56782139Y23243000D01*
X56522840Y23321658D01*
X56250001Y23348530D01*
X55349999Y23348530D01*
X55077160Y23321658D01*
X54814805Y23242073D01*
X54722996Y23193000D01*
X53369294Y23193000D01*
X53127916Y23169226D01*
X52844310Y23083196D01*
X52775933Y23076461D01*
X52560477Y23011103D01*
X52361911Y22904968D01*
X52187867Y22762133D01*
X52045032Y22588089D01*
X51938897Y22389523D01*
X51877534Y22187238D01*
X51772084Y22219226D01*
X51449999Y22250948D01*
X51127915Y22219226D01*
X50960005Y22168291D01*
X50882073Y22425195D01*
X50752835Y22666982D01*
X50578910Y22878910D01*
X50366982Y23052835D01*
X50125195Y23182073D01*
X49862840Y23261658D01*
X49590001Y23288530D01*
X48689999Y23288530D01*
X48417160Y23261658D01*
X48154805Y23182073D01*
X48104379Y23155120D01*
X47808209Y23065278D01*
X47522782Y22912714D01*
X47272603Y22707397D01*
X47221157Y22644710D01*
X46254093Y21677645D01*
X46174380Y21644627D01*
X45888902Y21453877D01*
X45646123Y21211098D01*
X45455373Y20925620D01*
X45422355Y20845907D01*
X44154448Y19578000D01*
X42378901Y19578000D01*
X42383530Y19625000D01*
X42383530Y20300000D01*
X42356658Y20572840D01*
X42277073Y20835194D01*
X42147835Y21076982D01*
X41973910Y21288910D01*
X41865934Y21377524D01*
X41873072Y21450000D01*
X41870000Y21751750D01*
X41711250Y21910500D01*
X40637000Y21910500D01*
X40637000Y21890500D01*
X40383000Y21890500D01*
X40383000Y21910500D01*
X39308750Y21910500D01*
X39150000Y21751750D01*
X39148180Y21573000D01*
X30733052Y21573000D01*
X29681052Y22625000D01*
X39146928Y22625000D01*
X39150000Y22323250D01*
X39308750Y22164500D01*
X40383000Y22164500D01*
X40383000Y23101250D01*
X40637000Y23101250D01*
X40637000Y22164500D01*
X41711250Y22164500D01*
X41870000Y22323250D01*
X41873072Y22625000D01*
X41860812Y22749482D01*
X41824502Y22869180D01*
X41765537Y22979494D01*
X41686185Y23076185D01*
X41589494Y23155537D01*
X41479180Y23214502D01*
X41359482Y23250812D01*
X41235000Y23263072D01*
X40795750Y23260000D01*
X40637000Y23101250D01*
X40383000Y23101250D01*
X40224250Y23260000D01*
X39785000Y23263072D01*
X39660518Y23250812D01*
X39540820Y23214502D01*
X39430506Y23155537D01*
X39333815Y23076185D01*
X39254463Y22979494D01*
X39195498Y22869180D01*
X39159188Y22749482D01*
X39146928Y22625000D01*
X29681052Y22625000D01*
X27987478Y24318574D01*
X28044482Y24324188D01*
X28164180Y24360498D01*
X28274494Y24419463D01*
X28371185Y24498815D01*
X28450537Y24595506D01*
X28509502Y24705820D01*
X28545812Y24825518D01*
X28558072Y24950000D01*
X28555000Y25564250D01*
X28396250Y25723000D01*
X27384500Y25723000D01*
X27384500Y25703000D01*
X27130500Y25703000D01*
X27130500Y25723000D01*
X27110500Y25723000D01*
X27110500Y25977000D01*
X27130500Y25977000D01*
X27130500Y27226250D01*
X27384500Y27226250D01*
X27384500Y25977000D01*
X28396250Y25977000D01*
X28555000Y26135750D01*
X28558072Y26750000D01*
X28545812Y26874482D01*
X28509502Y26994180D01*
X28450537Y27104494D01*
X28371185Y27201185D01*
X28274494Y27280537D01*
X28164180Y27339502D01*
X28044482Y27375812D01*
X27920000Y27388072D01*
X27543250Y27385000D01*
X27384500Y27226250D01*
X27130500Y27226250D01*
X27096271Y27260479D01*
X27146461Y27425933D01*
X27168530Y27650000D01*
X27168530Y29650000D01*
X27146461Y29874067D01*
X27081103Y30089523D01*
X26974968Y30288089D01*
X26832133Y30462133D01*
X26658089Y30604968D01*
X26459523Y30711103D01*
X26244067Y30776461D01*
X26020000Y30798530D01*
X25763000Y30798530D01*
X25763000Y33236403D01*
X25824968Y33311911D01*
X25825527Y33312957D01*
X26134250Y33315000D01*
X26293000Y33473750D01*
X26293000Y34823000D01*
X26547000Y34823000D01*
X26547000Y33473750D01*
X26705750Y33315000D01*
X27170000Y33311928D01*
X27294482Y33324188D01*
X27414180Y33360498D01*
X27524494Y33419463D01*
X27621185Y33498815D01*
X27700537Y33595506D01*
X27759502Y33705820D01*
X27795812Y33825518D01*
X27808072Y33950000D01*
X27805000Y34664250D01*
X27646250Y34823000D01*
X26547000Y34823000D01*
X26293000Y34823000D01*
X26273000Y34823000D01*
X26273000Y35077000D01*
X26293000Y35077000D01*
X26293000Y36426250D01*
X26547000Y36426250D01*
X26547000Y35077000D01*
X27646250Y35077000D01*
X27805000Y35235750D01*
X27808072Y35950000D01*
X27795812Y36074482D01*
X27759502Y36194180D01*
X27700537Y36304494D01*
X27621185Y36401185D01*
X27524494Y36480537D01*
X27414180Y36539502D01*
X27294482Y36575812D01*
X27170000Y36588072D01*
X26705750Y36585000D01*
X26547000Y36426250D01*
X26293000Y36426250D01*
X26134250Y36585000D01*
X25825527Y36587043D01*
X25824968Y36588089D01*
X25682133Y36762133D01*
X25508089Y36904968D01*
X25309523Y37011103D01*
X25153964Y37058291D01*
X25158072Y37100000D01*
X25155000Y37539250D01*
X24996250Y37698000D01*
X24059500Y37698000D01*
X24059500Y37678000D01*
X23805500Y37678000D01*
X23805500Y37698000D01*
X23785500Y37698000D01*
X23785500Y37952000D01*
X23805500Y37952000D01*
X23805500Y39026250D01*
X24059500Y39026250D01*
X24059500Y37952000D01*
X24996250Y37952000D01*
X25155000Y38110750D01*
X25158072Y38550000D01*
X25145812Y38674482D01*
X25109502Y38794180D01*
X25050537Y38904494D01*
X24971185Y39001185D01*
X24874494Y39080537D01*
X24764180Y39139502D01*
X24644482Y39175812D01*
X24520000Y39188072D01*
X24218250Y39185000D01*
X24059500Y39026250D01*
X23805500Y39026250D01*
X23646750Y39185000D01*
X23513000Y39186362D01*
X23513000Y39329448D01*
X24157210Y39973657D01*
X24219897Y40025103D01*
X24271347Y40087795D01*
X24494095Y40310543D01*
X24804617Y40341126D01*
X25184069Y40456232D01*
X25533774Y40643153D01*
X25840293Y40894707D01*
X26091847Y41201226D01*
X26278768Y41550931D01*
X26393874Y41930384D01*
X26423000Y42226108D01*
X26423000Y42239448D01*
X29950553Y45767000D01*
X41397681Y45767000D01*
X41629806Y45642927D01*
X41892160Y45563342D01*
X42165000Y45536470D01*
X42840000Y45536470D01*
X43112840Y45563342D01*
X43375194Y45642927D01*
X43616982Y45772165D01*
X43828910Y45946090D01*
X43917524Y46054066D01*
X43990000Y46046928D01*
X44291750Y46050000D01*
X44450500Y46208750D01*
X44450500Y47283000D01*
X44704500Y47283000D01*
X44704500Y46208750D01*
X44863250Y46050000D01*
X45165000Y46046928D01*
X45289482Y46059188D01*
X45409180Y46095498D01*
X45519494Y46154463D01*
X45616185Y46233815D01*
X45695537Y46330506D01*
X45754502Y46440820D01*
X45790812Y46560518D01*
X45803072Y46685000D01*
X45800000Y47124250D01*
X45641250Y47283000D01*
X44704500Y47283000D01*
X44450500Y47283000D01*
X44430500Y47283000D01*
X44430500Y47537000D01*
X44450500Y47537000D01*
X44450500Y48611250D01*
X44704500Y48611250D01*
X44704500Y47537000D01*
X45641250Y47537000D01*
X45800000Y47695750D01*
X45803072Y48135000D01*
X45790812Y48259482D01*
X45754502Y48379180D01*
X45695537Y48489494D01*
X45616185Y48586185D01*
X45519494Y48665537D01*
X45409180Y48724502D01*
X45289482Y48760812D01*
X45165000Y48773072D01*
X44863250Y48770000D01*
X44704500Y48611250D01*
X44450500Y48611250D01*
X44291750Y48770000D01*
X44133000Y48771616D01*
X44133000Y50183392D01*
X44244041Y50294433D01*
X44311020Y50054344D01*
X44560048Y49937244D01*
X44827135Y49870977D01*
X45102017Y49858090D01*
X45374133Y49899078D01*
X45633023Y49992364D01*
X45748980Y50054344D01*
X45815959Y50294433D01*
X45932369Y50178023D01*
X45974008Y50219662D01*
X46090290Y50045634D01*
X46355634Y49780290D01*
X46667644Y49571811D01*
X47014332Y49428209D01*
X47382374Y49355000D01*
X47757626Y49355000D01*
X48125668Y49428209D01*
X48472356Y49571811D01*
X48784366Y49780290D01*
X48840000Y49835924D01*
X48895634Y49780290D01*
X49207644Y49571811D01*
X49554332Y49428209D01*
X49922374Y49355000D01*
X50297626Y49355000D01*
X50665668Y49428209D01*
X51012356Y49571811D01*
X51324366Y49780290D01*
X51380000Y49835924D01*
X51435634Y49780290D01*
X51747644Y49571811D01*
X52094332Y49428209D01*
X52462374Y49355000D01*
X52837626Y49355000D01*
X53205668Y49428209D01*
X53552356Y49571811D01*
X53864366Y49780290D01*
X53920000Y49835924D01*
X53975634Y49780290D01*
X54287644Y49571811D01*
X54634332Y49428209D01*
X55002374Y49355000D01*
X55377626Y49355000D01*
X55745668Y49428209D01*
X56092356Y49571811D01*
X56404366Y49780290D01*
X56460000Y49835924D01*
X56515634Y49780290D01*
X56827644Y49571811D01*
X57174332Y49428209D01*
X57542374Y49355000D01*
X57917626Y49355000D01*
X58285668Y49428209D01*
X58632356Y49571811D01*
X58944366Y49780290D01*
X59000000Y49835924D01*
X59055634Y49780290D01*
X59367644Y49571811D01*
X59714332Y49428209D01*
X60082374Y49355000D01*
X60457626Y49355000D01*
X60825668Y49428209D01*
X61172356Y49571811D01*
X61484366Y49780290D01*
X61540000Y49835924D01*
X61595634Y49780290D01*
X61907644Y49571811D01*
X62254332Y49428209D01*
X62622374Y49355000D01*
X62997626Y49355000D01*
X63365668Y49428209D01*
X63712356Y49571811D01*
X64024366Y49780290D01*
X64080000Y49835924D01*
X64135634Y49780290D01*
X64447644Y49571811D01*
X64794332Y49428209D01*
X65162374Y49355000D01*
X65537626Y49355000D01*
X65905668Y49428209D01*
X66252356Y49571811D01*
X66564366Y49780290D01*
X66620000Y49835924D01*
X66675634Y49780290D01*
X66987644Y49571811D01*
X67334332Y49428209D01*
X67702374Y49355000D01*
X68077626Y49355000D01*
X68445668Y49428209D01*
X68792356Y49571811D01*
X69104366Y49780290D01*
X69160000Y49835924D01*
X69215634Y49780290D01*
X69527644Y49571811D01*
X69874332Y49428209D01*
X70242374Y49355000D01*
X70617626Y49355000D01*
X70985668Y49428209D01*
X71332356Y49571811D01*
X71644366Y49780290D01*
X71700000Y49835924D01*
X71755634Y49780290D01*
X72067644Y49571811D01*
X72414332Y49428209D01*
X72782374Y49355000D01*
X73157626Y49355000D01*
X73525668Y49428209D01*
X73872356Y49571811D01*
X74184366Y49780290D01*
X74240000Y49835924D01*
X74295634Y49780290D01*
X74607644Y49571811D01*
X74954332Y49428209D01*
X75322374Y49355000D01*
X75697626Y49355000D01*
X76065668Y49428209D01*
X76412356Y49571811D01*
X76523970Y49646389D01*
X76649911Y49543032D01*
X76848477Y49436897D01*
X77063933Y49371539D01*
X77288000Y49349470D01*
X78812000Y49349470D01*
X79036067Y49371539D01*
X79251523Y49436897D01*
X79450089Y49543032D01*
X79624133Y49685867D01*
X79766968Y49859911D01*
X79873103Y50058477D01*
X79938461Y50273933D01*
X79960530Y50498000D01*
X79960530Y52022000D01*
X79938461Y52246067D01*
X79873103Y52461523D01*
X79766968Y52660089D01*
X79624133Y52834133D01*
X79450089Y52976968D01*
X79251523Y53083103D01*
X79036067Y53148461D01*
X78812000Y53170530D01*
X77288000Y53170530D01*
X77063933Y53148461D01*
X76848477Y53083103D01*
X76649911Y52976968D01*
X76523970Y52873611D01*
X76412356Y52948189D01*
X76065668Y53091791D01*
X75697626Y53165000D01*
X75322374Y53165000D01*
X74954332Y53091791D01*
X74607644Y52948189D01*
X74295634Y52739710D01*
X74240000Y52684076D01*
X74184366Y52739710D01*
X73872356Y52948189D01*
X73525668Y53091791D01*
X73157626Y53165000D01*
X72782374Y53165000D01*
X72414332Y53091791D01*
X72067644Y52948189D01*
X71755634Y52739710D01*
X71700000Y52684076D01*
X71644366Y52739710D01*
X71332356Y52948189D01*
X70985668Y53091791D01*
X70617626Y53165000D01*
X70242374Y53165000D01*
X69874332Y53091791D01*
X69527644Y52948189D01*
X69215634Y52739710D01*
X69160000Y52684076D01*
X69104366Y52739710D01*
X68792356Y52948189D01*
X68445668Y53091791D01*
X68077626Y53165000D01*
X67702374Y53165000D01*
X67334332Y53091791D01*
X66987644Y52948189D01*
X66675634Y52739710D01*
X66620000Y52684076D01*
X66564366Y52739710D01*
X66252356Y52948189D01*
X65905668Y53091791D01*
X65537626Y53165000D01*
X65162374Y53165000D01*
X64794332Y53091791D01*
X64447644Y52948189D01*
X64135634Y52739710D01*
X64080000Y52684076D01*
X64024366Y52739710D01*
X63712356Y52948189D01*
X63365668Y53091791D01*
X62997626Y53165000D01*
X62622374Y53165000D01*
X62254332Y53091791D01*
X61907644Y52948189D01*
X61595634Y52739710D01*
X61540000Y52684076D01*
X61484366Y52739710D01*
X61172356Y52948189D01*
X60825668Y53091791D01*
X60457626Y53165000D01*
X60082374Y53165000D01*
X59714332Y53091791D01*
X59367644Y52948189D01*
X59055634Y52739710D01*
X59000000Y52684076D01*
X58944366Y52739710D01*
X58632356Y52948189D01*
X58285668Y53091791D01*
X57917626Y53165000D01*
X57542374Y53165000D01*
X57174332Y53091791D01*
X56827644Y52948189D01*
X56515634Y52739710D01*
X56460000Y52684076D01*
X56404366Y52739710D01*
X56092356Y52948189D01*
X55745668Y53091791D01*
X55377626Y53165000D01*
X55002374Y53165000D01*
X54634332Y53091791D01*
X54287644Y52948189D01*
X53975634Y52739710D01*
X53920000Y52684076D01*
X53864366Y52739710D01*
X53552356Y52948189D01*
X53205668Y53091791D01*
X52837626Y53165000D01*
X52462374Y53165000D01*
X52094332Y53091791D01*
X51747644Y52948189D01*
X51435634Y52739710D01*
X51380000Y52684076D01*
X51324366Y52739710D01*
X51012356Y52948189D01*
X50665668Y53091791D01*
X50297626Y53165000D01*
X49922374Y53165000D01*
X49554332Y53091791D01*
X49207644Y52948189D01*
X48895634Y52739710D01*
X48840000Y52684076D01*
X48784366Y52739710D01*
X48472356Y52948189D01*
X48125668Y53091791D01*
X47757626Y53165000D01*
X47382374Y53165000D01*
X47014332Y53091791D01*
X46667644Y52948189D01*
X46355634Y52739710D01*
X46090290Y52474366D01*
X45974008Y52300338D01*
X45932369Y52341977D01*
X45815959Y52225567D01*
X45748980Y52465656D01*
X45499952Y52582756D01*
X45232865Y52649023D01*
X44957983Y52661910D01*
X44685867Y52620922D01*
X44426977Y52527636D01*
X44311020Y52465656D01*
X44244041Y52225567D01*
X44127631Y52341977D01*
X44085992Y52300338D01*
X43969710Y52474366D01*
X43704366Y52739710D01*
X43392356Y52948189D01*
X43045668Y53091791D01*
X42677626Y53165000D01*
X42302374Y53165000D01*
X41934332Y53091791D01*
X41587644Y52948189D01*
X41275634Y52739710D01*
X41010290Y52474366D01*
X40801811Y52162356D01*
X40658209Y51815668D01*
X40585000Y51447626D01*
X40585000Y51072374D01*
X40658209Y50704332D01*
X40801811Y50357644D01*
X40847000Y50290014D01*
X40847001Y49053000D01*
X29350699Y49053000D01*
X29270000Y49060948D01*
X29189301Y49053000D01*
X29189294Y49053000D01*
X28977841Y49032173D01*
X28947915Y49029226D01*
X28679416Y48947778D01*
X28638209Y48935278D01*
X28352782Y48782714D01*
X28102603Y48577397D01*
X28051157Y48514710D01*
X24325905Y44789457D01*
X24015383Y44758874D01*
X23635931Y44643768D01*
X23286226Y44456847D01*
X23140000Y44336842D01*
X22993774Y44456847D01*
X22644068Y44643768D01*
X22264616Y44758874D01*
X21870000Y44797740D01*
X21475383Y44758874D01*
X21095931Y44643768D01*
X20746226Y44456847D01*
X20439707Y44205293D01*
X20247639Y43971258D01*
X20050809Y44104474D01*
X19777591Y44219551D01*
X19690031Y44236302D01*
X19457000Y44115246D01*
X19457000Y42677000D01*
X19477000Y42677000D01*
X19477000Y42423000D01*
X19457000Y42423000D01*
X19457000Y40984754D01*
X19690031Y40863698D01*
X19777591Y40880449D01*
X20050809Y40995526D01*
X20227000Y41114774D01*
X20227000Y40205121D01*
X20214500Y40078205D01*
X20214500Y40078199D01*
X20206552Y39997500D01*
X20214500Y39916801D01*
X20214501Y38790933D01*
X20148342Y38572840D01*
X20121470Y38300000D01*
X20121470Y37350000D01*
X20148342Y37077160D01*
X20227001Y36817859D01*
X20227001Y36724523D01*
X20115032Y36588089D01*
X20008897Y36389523D01*
X19943539Y36174067D01*
X19921470Y35950000D01*
X19921470Y33950000D01*
X19943539Y33725933D01*
X20008897Y33510477D01*
X20115032Y33311911D01*
X20257867Y33137867D01*
X20431911Y32995032D01*
X20630477Y32888897D01*
X20845933Y32823539D01*
X21070000Y32801470D01*
X22477000Y32801470D01*
X22477001Y30798530D01*
X22220000Y30798530D01*
X21995933Y30776461D01*
X21780477Y30711103D01*
X21581911Y30604968D01*
X21407867Y30462133D01*
X21265032Y30288089D01*
X21158897Y30089523D01*
X21093539Y29874067D01*
X21071470Y29650000D01*
X21071470Y27650000D01*
X21093539Y27425933D01*
X21158897Y27210477D01*
X21265032Y27011911D01*
X21407867Y26837867D01*
X21581911Y26695032D01*
X21780477Y26588897D01*
X21995933Y26523539D01*
X22220000Y26501470D01*
X22321614Y26501470D01*
X22321470Y26500003D01*
X22321470Y25199997D01*
X22348342Y24927158D01*
X22427927Y24664804D01*
X22557164Y24423017D01*
X22731089Y24211089D01*
X22943017Y24037164D01*
X23184804Y23907927D01*
X23447158Y23828342D01*
X23719997Y23801470D01*
X23857478Y23801470D01*
X27335198Y20323750D01*
X27182282Y20170834D01*
X27125537Y20276994D01*
X27046185Y20373685D01*
X26949494Y20453037D01*
X26839180Y20512002D01*
X26719482Y20548312D01*
X26595000Y20560572D01*
X26155750Y20557500D01*
X25997000Y20398750D01*
X25997000Y19462000D01*
X26017000Y19462000D01*
X26017000Y19208000D01*
X25997000Y19208000D01*
X25997000Y19188000D01*
X25743000Y19188000D01*
X25743000Y19208000D01*
X24668750Y19208000D01*
X24510000Y19049250D01*
X24506928Y18747500D01*
X24514066Y18675024D01*
X24406090Y18586410D01*
X24232165Y18374482D01*
X24102927Y18132694D01*
X24023342Y17870340D01*
X23996470Y17597500D01*
X23996470Y16922500D01*
X24023342Y16649660D01*
X24102927Y16387306D01*
X24227000Y16155180D01*
X24227001Y15560553D01*
X23964513Y15298065D01*
X23918507Y15293534D01*
X23926941Y18839698D01*
X23924501Y18864776D01*
X23917274Y18888601D01*
X23917000Y18889114D01*
X23917000Y19922500D01*
X24506928Y19922500D01*
X24510000Y19620750D01*
X24668750Y19462000D01*
X25743000Y19462000D01*
X25743000Y20398750D01*
X25584250Y20557500D01*
X25145000Y20560572D01*
X25020518Y20548312D01*
X24900820Y20512002D01*
X24790506Y20453037D01*
X24693815Y20373685D01*
X24614463Y20276994D01*
X24555498Y20166680D01*
X24519188Y20046982D01*
X24506928Y19922500D01*
X23917000Y19922500D01*
X23917000Y22110000D01*
X23914560Y22134776D01*
X23907333Y22158601D01*
X23895597Y22180557D01*
X23879803Y22199803D01*
X23860557Y22215597D01*
X23838601Y22227333D01*
X23814776Y22234560D01*
X23790000Y22237000D01*
X3328000Y22237000D01*
X3328000Y41455000D01*
X15281928Y41455000D01*
X15294188Y41330518D01*
X15330498Y41210820D01*
X15389463Y41100506D01*
X15468815Y41003815D01*
X15565506Y40924463D01*
X15675820Y40865498D01*
X15795518Y40829188D01*
X15920000Y40816928D01*
X16504250Y40820000D01*
X16663000Y40978750D01*
X16663000Y42423000D01*
X16917000Y42423000D01*
X16917000Y40978750D01*
X17075750Y40820000D01*
X17660000Y40816928D01*
X17784482Y40829188D01*
X17904180Y40865498D01*
X18014494Y40924463D01*
X18111185Y41003815D01*
X18190537Y41100506D01*
X18249502Y41210820D01*
X18264916Y41261633D01*
X18363674Y41161694D01*
X18609191Y40995526D01*
X18882409Y40880449D01*
X18969969Y40863698D01*
X19203000Y40984754D01*
X19203000Y42423000D01*
X16917000Y42423000D01*
X16663000Y42423000D01*
X15443750Y42423000D01*
X15285000Y42264250D01*
X15281928Y41455000D01*
X3328000Y41455000D01*
X3328000Y43645000D01*
X15281928Y43645000D01*
X15285000Y42835750D01*
X15443750Y42677000D01*
X16663000Y42677000D01*
X16663000Y44121250D01*
X16917000Y44121250D01*
X16917000Y42677000D01*
X19203000Y42677000D01*
X19203000Y44115246D01*
X18969969Y44236302D01*
X18882409Y44219551D01*
X18609191Y44104474D01*
X18363674Y43938306D01*
X18264916Y43838367D01*
X18249502Y43889180D01*
X18190537Y43999494D01*
X18111185Y44096185D01*
X18014494Y44175537D01*
X17904180Y44234502D01*
X17784482Y44270812D01*
X17660000Y44283072D01*
X17075750Y44280000D01*
X16917000Y44121250D01*
X16663000Y44121250D01*
X16504250Y44280000D01*
X15920000Y44283072D01*
X15795518Y44270812D01*
X15675820Y44234502D01*
X15565506Y44175537D01*
X15468815Y44096185D01*
X15389463Y43999494D01*
X15330498Y43889180D01*
X15294188Y43769482D01*
X15281928Y43645000D01*
X3328000Y43645000D01*
X3328000Y54512000D01*
X88272001Y54512000D01*
X88272000Y1168000D01*
%TA.AperFunction,Conductor*%
D25*
G36*
X88272000Y1168000D02*
G01*
X50882696Y1168000D01*
X50948223Y1221777D01*
X51090370Y1394983D01*
X51195994Y1592593D01*
X51261038Y1807012D01*
X51283000Y2030000D01*
X51283000Y4010000D01*
X51261038Y4232988D01*
X51195994Y4447407D01*
X51090370Y4645017D01*
X50948223Y4818223D01*
X50775017Y4960370D01*
X50577407Y5065994D01*
X50362988Y5131038D01*
X50183000Y5148765D01*
X50183000Y5328333D01*
X50346750Y5330000D01*
X50505500Y5488750D01*
X50505500Y6563000D01*
X50759500Y6563000D01*
X50759500Y5488750D01*
X50918250Y5330000D01*
X51220000Y5326928D01*
X51344482Y5339188D01*
X51464180Y5375498D01*
X51574494Y5434463D01*
X51671185Y5513815D01*
X51750537Y5610506D01*
X51809502Y5720820D01*
X51845812Y5840518D01*
X51858072Y5965000D01*
X51855000Y6404250D01*
X51696250Y6563000D01*
X50759500Y6563000D01*
X50505500Y6563000D01*
X50485500Y6563000D01*
X50485500Y6817000D01*
X50505500Y6817000D01*
X50505500Y7891250D01*
X50439250Y7957500D01*
X50500500Y8018750D01*
X50500500Y9093000D01*
X50754500Y9093000D01*
X50754500Y8018750D01*
X50820750Y7952500D01*
X50759500Y7891250D01*
X50759500Y6817000D01*
X51696250Y6817000D01*
X51855000Y6975750D01*
X51858072Y7415000D01*
X51845812Y7539482D01*
X51809502Y7659180D01*
X51750537Y7769494D01*
X51671185Y7866185D01*
X51574494Y7945537D01*
X51554290Y7956336D01*
X51569494Y7964463D01*
X51666185Y8043815D01*
X51745537Y8140506D01*
X51804502Y8250820D01*
X51840812Y8370518D01*
X51853072Y8495000D01*
X51850000Y8934250D01*
X51691250Y9093000D01*
X50754500Y9093000D01*
X50500500Y9093000D01*
X50480500Y9093000D01*
X50480500Y9347000D01*
X50500500Y9347000D01*
X50500500Y9367000D01*
X50754500Y9367000D01*
X50754500Y9347000D01*
X51691250Y9347000D01*
X51850000Y9505750D01*
X51853016Y9937000D01*
X53397861Y9937000D01*
X53657160Y9858342D01*
X53929999Y9831470D01*
X54830001Y9831470D01*
X55102840Y9858342D01*
X55362139Y9937000D01*
X57279301Y9937000D01*
X57360000Y9929052D01*
X57440699Y9937000D01*
X57440706Y9937000D01*
X57682084Y9960774D01*
X57991791Y10054722D01*
X58277218Y10207286D01*
X58527397Y10412603D01*
X58578848Y10475296D01*
X58904618Y10801066D01*
X58995032Y10631911D01*
X59137867Y10457867D01*
X59311911Y10315032D01*
X59510477Y10208897D01*
X59725933Y10143539D01*
X59794310Y10136804D01*
X60077916Y10050774D01*
X60319294Y10027000D01*
X62160744Y10027000D01*
X62364805Y9917927D01*
X62627160Y9838342D01*
X62899999Y9811470D01*
X63800001Y9811470D01*
X64072840Y9838342D01*
X64287376Y9903421D01*
X64314093Y9892355D01*
X66581157Y7625290D01*
X66632603Y7562603D01*
X66882782Y7357286D01*
X67012656Y7287867D01*
X67168209Y7204722D01*
X67477915Y7110774D01*
X67510906Y7107525D01*
X67719294Y7087000D01*
X67719300Y7087000D01*
X67799999Y7079052D01*
X67880698Y7087000D01*
X81699301Y7087000D01*
X81780000Y7079052D01*
X81860699Y7087000D01*
X81860706Y7087000D01*
X82102084Y7110774D01*
X82411791Y7204722D01*
X82697218Y7357286D01*
X82947397Y7562603D01*
X82998848Y7625296D01*
X83984704Y8611152D01*
X84047397Y8662603D01*
X84252714Y8912782D01*
X84405278Y9198209D01*
X84411888Y9220000D01*
X84499226Y9507915D01*
X84512071Y9638331D01*
X84523000Y9749294D01*
X84523000Y9749301D01*
X84530948Y9830000D01*
X84523000Y9910699D01*
X84523000Y10133891D01*
X84561847Y10181226D01*
X84748768Y10530931D01*
X84863874Y10910384D01*
X84893000Y11206108D01*
X84893000Y11853893D01*
X84863874Y12149617D01*
X84748768Y12529069D01*
X84561847Y12878774D01*
X84310293Y13185293D01*
X84003774Y13436847D01*
X83654068Y13623768D01*
X83274616Y13738874D01*
X82880000Y13777740D01*
X82485383Y13738874D01*
X82105931Y13623768D01*
X81983000Y13558060D01*
X81983000Y18409301D01*
X81990948Y18490000D01*
X81983000Y18570699D01*
X81983000Y18570706D01*
X81959226Y18812084D01*
X81955220Y18825292D01*
X81865278Y19121791D01*
X81850986Y19148530D01*
X81712714Y19407218D01*
X81507397Y19657397D01*
X81444711Y19708842D01*
X76748814Y24404738D01*
X76780000Y24435924D01*
X76835634Y24380290D01*
X77147644Y24171811D01*
X77494332Y24028209D01*
X77862374Y23955000D01*
X78237626Y23955000D01*
X78605668Y24028209D01*
X78952356Y24171811D01*
X79264366Y24380290D01*
X79529710Y24645634D01*
X79738189Y24957644D01*
X79881791Y25304332D01*
X79955000Y25672374D01*
X79955000Y26047626D01*
X79881791Y26415668D01*
X79738189Y26762356D01*
X79529710Y27074366D01*
X79264366Y27339710D01*
X78952356Y27548189D01*
X78605668Y27691791D01*
X78237626Y27765000D01*
X77862374Y27765000D01*
X77494332Y27691791D01*
X77147644Y27548189D01*
X76835634Y27339710D01*
X76780000Y27284076D01*
X76724366Y27339710D01*
X76412356Y27548189D01*
X76065668Y27691791D01*
X75697626Y27765000D01*
X75322374Y27765000D01*
X74954332Y27691791D01*
X74607644Y27548189D01*
X74295634Y27339710D01*
X74240000Y27284076D01*
X74184366Y27339710D01*
X73872356Y27548189D01*
X73525668Y27691791D01*
X73157626Y27765000D01*
X72782374Y27765000D01*
X72414332Y27691791D01*
X72067644Y27548189D01*
X71755634Y27339710D01*
X71700000Y27284076D01*
X71644366Y27339710D01*
X71332356Y27548189D01*
X70985668Y27691791D01*
X70617626Y27765000D01*
X70242374Y27765000D01*
X69874332Y27691791D01*
X69527644Y27548189D01*
X69215634Y27339710D01*
X69160000Y27284076D01*
X69104366Y27339710D01*
X68792356Y27548189D01*
X68445668Y27691791D01*
X68077626Y27765000D01*
X67702374Y27765000D01*
X67334332Y27691791D01*
X66987644Y27548189D01*
X66675634Y27339710D01*
X66620000Y27284076D01*
X66564366Y27339710D01*
X66252356Y27548189D01*
X65905668Y27691791D01*
X65537626Y27765000D01*
X65162374Y27765000D01*
X64794332Y27691791D01*
X64447644Y27548189D01*
X64135634Y27339710D01*
X64080000Y27284076D01*
X64024366Y27339710D01*
X63712356Y27548189D01*
X63365668Y27691791D01*
X62997626Y27765000D01*
X62622374Y27765000D01*
X62254332Y27691791D01*
X61907644Y27548189D01*
X61595634Y27339710D01*
X61540000Y27284076D01*
X61484366Y27339710D01*
X61172356Y27548189D01*
X60825668Y27691791D01*
X60457626Y27765000D01*
X60082374Y27765000D01*
X59714332Y27691791D01*
X59367644Y27548189D01*
X59055634Y27339710D01*
X59000000Y27284076D01*
X58944366Y27339710D01*
X58632356Y27548189D01*
X58285668Y27691791D01*
X57917626Y27765000D01*
X57542374Y27765000D01*
X57174332Y27691791D01*
X56827644Y27548189D01*
X56515634Y27339710D01*
X56460000Y27284076D01*
X56404366Y27339710D01*
X56092356Y27548189D01*
X55745668Y27691791D01*
X55377626Y27765000D01*
X55002374Y27765000D01*
X54634332Y27691791D01*
X54287644Y27548189D01*
X53975634Y27339710D01*
X53920000Y27284076D01*
X53864366Y27339710D01*
X53552356Y27548189D01*
X53205668Y27691791D01*
X52837626Y27765000D01*
X52462374Y27765000D01*
X52094332Y27691791D01*
X51747644Y27548189D01*
X51435634Y27339710D01*
X51380000Y27284076D01*
X51324366Y27339710D01*
X51012356Y27548189D01*
X50665668Y27691791D01*
X50297626Y27765000D01*
X49922374Y27765000D01*
X49554332Y27691791D01*
X49207644Y27548189D01*
X48895634Y27339710D01*
X48840000Y27284076D01*
X48784366Y27339710D01*
X48472356Y27548189D01*
X48125668Y27691791D01*
X47757626Y27765000D01*
X47382374Y27765000D01*
X47014332Y27691791D01*
X46667644Y27548189D01*
X46355634Y27339710D01*
X46090290Y27074366D01*
X45974008Y26900338D01*
X45932369Y26941977D01*
X45815959Y26825567D01*
X45748980Y27065656D01*
X45499952Y27182756D01*
X45232865Y27249023D01*
X44957983Y27261910D01*
X44685867Y27220922D01*
X44426977Y27127636D01*
X44311020Y27065656D01*
X44244041Y26825567D01*
X44127631Y26941977D01*
X44085992Y26900338D01*
X43969710Y27074366D01*
X43704366Y27339710D01*
X43392356Y27548189D01*
X43045668Y27691791D01*
X42677626Y27765000D01*
X42302374Y27765000D01*
X41934332Y27691791D01*
X41587644Y27548189D01*
X41275634Y27339710D01*
X41010290Y27074366D01*
X40801811Y26762356D01*
X40658209Y26415668D01*
X40585000Y26047626D01*
X40585000Y25672374D01*
X40658209Y25304332D01*
X40801811Y24957644D01*
X41010290Y24645634D01*
X41275634Y24380290D01*
X41587644Y24171811D01*
X41934332Y24028209D01*
X42302374Y23955000D01*
X42677626Y23955000D01*
X43045668Y24028209D01*
X43392356Y24171811D01*
X43704366Y24380290D01*
X43969710Y24645634D01*
X44085992Y24819662D01*
X44127631Y24778023D01*
X44244041Y24894433D01*
X44311020Y24654344D01*
X44560048Y24537244D01*
X44827135Y24470977D01*
X45102017Y24458090D01*
X45374133Y24499078D01*
X45633023Y24592364D01*
X45748980Y24654344D01*
X45815959Y24894433D01*
X45932369Y24778023D01*
X45974008Y24819662D01*
X46090290Y24645634D01*
X46355634Y24380290D01*
X46667644Y24171811D01*
X47014332Y24028209D01*
X47382374Y23955000D01*
X47757626Y23955000D01*
X48125668Y24028209D01*
X48472356Y24171811D01*
X48784366Y24380290D01*
X48840000Y24435924D01*
X48895634Y24380290D01*
X49207644Y24171811D01*
X49554332Y24028209D01*
X49922374Y23955000D01*
X50297626Y23955000D01*
X50665668Y24028209D01*
X51012356Y24171811D01*
X51324366Y24380290D01*
X51380000Y24435924D01*
X51435634Y24380290D01*
X51747644Y24171811D01*
X52094332Y24028209D01*
X52462374Y23955000D01*
X52837626Y23955000D01*
X53205668Y24028209D01*
X53552356Y24171811D01*
X53864366Y24380290D01*
X53920000Y24435924D01*
X53975634Y24380290D01*
X54287644Y24171811D01*
X54634332Y24028209D01*
X55002374Y23955000D01*
X55377626Y23955000D01*
X55745668Y24028209D01*
X56092356Y24171811D01*
X56404366Y24380290D01*
X56460000Y24435924D01*
X56515634Y24380290D01*
X56827644Y24171811D01*
X57174332Y24028209D01*
X57542374Y23955000D01*
X57917626Y23955000D01*
X58285668Y24028209D01*
X58632356Y24171811D01*
X58944366Y24380290D01*
X59000000Y24435924D01*
X59031186Y24404738D01*
X57869448Y23243000D01*
X56782139Y23243000D01*
X56522840Y23321658D01*
X56250001Y23348530D01*
X55349999Y23348530D01*
X55077160Y23321658D01*
X54814805Y23242073D01*
X54722996Y23193000D01*
X53369294Y23193000D01*
X53127916Y23169226D01*
X52844310Y23083196D01*
X52775933Y23076461D01*
X52560477Y23011103D01*
X52361911Y22904968D01*
X52187867Y22762133D01*
X52045032Y22588089D01*
X51938897Y22389523D01*
X51877534Y22187238D01*
X51772084Y22219226D01*
X51449999Y22250948D01*
X51127915Y22219226D01*
X50960005Y22168291D01*
X50882073Y22425195D01*
X50752835Y22666982D01*
X50578910Y22878910D01*
X50366982Y23052835D01*
X50125195Y23182073D01*
X49862840Y23261658D01*
X49590001Y23288530D01*
X48689999Y23288530D01*
X48417160Y23261658D01*
X48154805Y23182073D01*
X48104379Y23155120D01*
X47808209Y23065278D01*
X47522782Y22912714D01*
X47272603Y22707397D01*
X47221157Y22644710D01*
X46254093Y21677645D01*
X46174380Y21644627D01*
X45888902Y21453877D01*
X45646123Y21211098D01*
X45455373Y20925620D01*
X45422355Y20845907D01*
X44154448Y19578000D01*
X42378901Y19578000D01*
X42383530Y19625000D01*
X42383530Y20300000D01*
X42356658Y20572840D01*
X42277073Y20835194D01*
X42147835Y21076982D01*
X41973910Y21288910D01*
X41865934Y21377524D01*
X41873072Y21450000D01*
X41870000Y21751750D01*
X41711250Y21910500D01*
X40637000Y21910500D01*
X40637000Y21890500D01*
X40383000Y21890500D01*
X40383000Y21910500D01*
X39308750Y21910500D01*
X39150000Y21751750D01*
X39148180Y21573000D01*
X30733052Y21573000D01*
X29681052Y22625000D01*
X39146928Y22625000D01*
X39150000Y22323250D01*
X39308750Y22164500D01*
X40383000Y22164500D01*
X40383000Y23101250D01*
X40637000Y23101250D01*
X40637000Y22164500D01*
X41711250Y22164500D01*
X41870000Y22323250D01*
X41873072Y22625000D01*
X41860812Y22749482D01*
X41824502Y22869180D01*
X41765537Y22979494D01*
X41686185Y23076185D01*
X41589494Y23155537D01*
X41479180Y23214502D01*
X41359482Y23250812D01*
X41235000Y23263072D01*
X40795750Y23260000D01*
X40637000Y23101250D01*
X40383000Y23101250D01*
X40224250Y23260000D01*
X39785000Y23263072D01*
X39660518Y23250812D01*
X39540820Y23214502D01*
X39430506Y23155537D01*
X39333815Y23076185D01*
X39254463Y22979494D01*
X39195498Y22869180D01*
X39159188Y22749482D01*
X39146928Y22625000D01*
X29681052Y22625000D01*
X27987478Y24318574D01*
X28044482Y24324188D01*
X28164180Y24360498D01*
X28274494Y24419463D01*
X28371185Y24498815D01*
X28450537Y24595506D01*
X28509502Y24705820D01*
X28545812Y24825518D01*
X28558072Y24950000D01*
X28555000Y25564250D01*
X28396250Y25723000D01*
X27384500Y25723000D01*
X27384500Y25703000D01*
X27130500Y25703000D01*
X27130500Y25723000D01*
X27110500Y25723000D01*
X27110500Y25977000D01*
X27130500Y25977000D01*
X27130500Y27226250D01*
X27384500Y27226250D01*
X27384500Y25977000D01*
X28396250Y25977000D01*
X28555000Y26135750D01*
X28558072Y26750000D01*
X28545812Y26874482D01*
X28509502Y26994180D01*
X28450537Y27104494D01*
X28371185Y27201185D01*
X28274494Y27280537D01*
X28164180Y27339502D01*
X28044482Y27375812D01*
X27920000Y27388072D01*
X27543250Y27385000D01*
X27384500Y27226250D01*
X27130500Y27226250D01*
X27096271Y27260479D01*
X27146461Y27425933D01*
X27168530Y27650000D01*
X27168530Y29650000D01*
X27146461Y29874067D01*
X27081103Y30089523D01*
X26974968Y30288089D01*
X26832133Y30462133D01*
X26658089Y30604968D01*
X26459523Y30711103D01*
X26244067Y30776461D01*
X26020000Y30798530D01*
X25763000Y30798530D01*
X25763000Y33236403D01*
X25824968Y33311911D01*
X25825527Y33312957D01*
X26134250Y33315000D01*
X26293000Y33473750D01*
X26293000Y34823000D01*
X26547000Y34823000D01*
X26547000Y33473750D01*
X26705750Y33315000D01*
X27170000Y33311928D01*
X27294482Y33324188D01*
X27414180Y33360498D01*
X27524494Y33419463D01*
X27621185Y33498815D01*
X27700537Y33595506D01*
X27759502Y33705820D01*
X27795812Y33825518D01*
X27808072Y33950000D01*
X27805000Y34664250D01*
X27646250Y34823000D01*
X26547000Y34823000D01*
X26293000Y34823000D01*
X26273000Y34823000D01*
X26273000Y35077000D01*
X26293000Y35077000D01*
X26293000Y36426250D01*
X26547000Y36426250D01*
X26547000Y35077000D01*
X27646250Y35077000D01*
X27805000Y35235750D01*
X27808072Y35950000D01*
X27795812Y36074482D01*
X27759502Y36194180D01*
X27700537Y36304494D01*
X27621185Y36401185D01*
X27524494Y36480537D01*
X27414180Y36539502D01*
X27294482Y36575812D01*
X27170000Y36588072D01*
X26705750Y36585000D01*
X26547000Y36426250D01*
X26293000Y36426250D01*
X26134250Y36585000D01*
X25825527Y36587043D01*
X25824968Y36588089D01*
X25682133Y36762133D01*
X25508089Y36904968D01*
X25309523Y37011103D01*
X25153964Y37058291D01*
X25158072Y37100000D01*
X25155000Y37539250D01*
X24996250Y37698000D01*
X24059500Y37698000D01*
X24059500Y37678000D01*
X23805500Y37678000D01*
X23805500Y37698000D01*
X23785500Y37698000D01*
X23785500Y37952000D01*
X23805500Y37952000D01*
X23805500Y39026250D01*
X24059500Y39026250D01*
X24059500Y37952000D01*
X24996250Y37952000D01*
X25155000Y38110750D01*
X25158072Y38550000D01*
X25145812Y38674482D01*
X25109502Y38794180D01*
X25050537Y38904494D01*
X24971185Y39001185D01*
X24874494Y39080537D01*
X24764180Y39139502D01*
X24644482Y39175812D01*
X24520000Y39188072D01*
X24218250Y39185000D01*
X24059500Y39026250D01*
X23805500Y39026250D01*
X23646750Y39185000D01*
X23513000Y39186362D01*
X23513000Y39329448D01*
X24157210Y39973657D01*
X24219897Y40025103D01*
X24271347Y40087795D01*
X24494095Y40310543D01*
X24804617Y40341126D01*
X25184069Y40456232D01*
X25533774Y40643153D01*
X25840293Y40894707D01*
X26091847Y41201226D01*
X26278768Y41550931D01*
X26393874Y41930384D01*
X26423000Y42226108D01*
X26423000Y42239448D01*
X29950553Y45767000D01*
X41397681Y45767000D01*
X41629806Y45642927D01*
X41892160Y45563342D01*
X42165000Y45536470D01*
X42840000Y45536470D01*
X43112840Y45563342D01*
X43375194Y45642927D01*
X43616982Y45772165D01*
X43828910Y45946090D01*
X43917524Y46054066D01*
X43990000Y46046928D01*
X44291750Y46050000D01*
X44450500Y46208750D01*
X44450500Y47283000D01*
X44704500Y47283000D01*
X44704500Y46208750D01*
X44863250Y46050000D01*
X45165000Y46046928D01*
X45289482Y46059188D01*
X45409180Y46095498D01*
X45519494Y46154463D01*
X45616185Y46233815D01*
X45695537Y46330506D01*
X45754502Y46440820D01*
X45790812Y46560518D01*
X45803072Y46685000D01*
X45800000Y47124250D01*
X45641250Y47283000D01*
X44704500Y47283000D01*
X44450500Y47283000D01*
X44430500Y47283000D01*
X44430500Y47537000D01*
X44450500Y47537000D01*
X44450500Y48611250D01*
X44704500Y48611250D01*
X44704500Y47537000D01*
X45641250Y47537000D01*
X45800000Y47695750D01*
X45803072Y48135000D01*
X45790812Y48259482D01*
X45754502Y48379180D01*
X45695537Y48489494D01*
X45616185Y48586185D01*
X45519494Y48665537D01*
X45409180Y48724502D01*
X45289482Y48760812D01*
X45165000Y48773072D01*
X44863250Y48770000D01*
X44704500Y48611250D01*
X44450500Y48611250D01*
X44291750Y48770000D01*
X44133000Y48771616D01*
X44133000Y50183392D01*
X44244041Y50294433D01*
X44311020Y50054344D01*
X44560048Y49937244D01*
X44827135Y49870977D01*
X45102017Y49858090D01*
X45374133Y49899078D01*
X45633023Y49992364D01*
X45748980Y50054344D01*
X45815959Y50294433D01*
X45932369Y50178023D01*
X45974008Y50219662D01*
X46090290Y50045634D01*
X46355634Y49780290D01*
X46667644Y49571811D01*
X47014332Y49428209D01*
X47382374Y49355000D01*
X47757626Y49355000D01*
X48125668Y49428209D01*
X48472356Y49571811D01*
X48784366Y49780290D01*
X48840000Y49835924D01*
X48895634Y49780290D01*
X49207644Y49571811D01*
X49554332Y49428209D01*
X49922374Y49355000D01*
X50297626Y49355000D01*
X50665668Y49428209D01*
X51012356Y49571811D01*
X51324366Y49780290D01*
X51380000Y49835924D01*
X51435634Y49780290D01*
X51747644Y49571811D01*
X52094332Y49428209D01*
X52462374Y49355000D01*
X52837626Y49355000D01*
X53205668Y49428209D01*
X53552356Y49571811D01*
X53864366Y49780290D01*
X53920000Y49835924D01*
X53975634Y49780290D01*
X54287644Y49571811D01*
X54634332Y49428209D01*
X55002374Y49355000D01*
X55377626Y49355000D01*
X55745668Y49428209D01*
X56092356Y49571811D01*
X56404366Y49780290D01*
X56460000Y49835924D01*
X56515634Y49780290D01*
X56827644Y49571811D01*
X57174332Y49428209D01*
X57542374Y49355000D01*
X57917626Y49355000D01*
X58285668Y49428209D01*
X58632356Y49571811D01*
X58944366Y49780290D01*
X59000000Y49835924D01*
X59055634Y49780290D01*
X59367644Y49571811D01*
X59714332Y49428209D01*
X60082374Y49355000D01*
X60457626Y49355000D01*
X60825668Y49428209D01*
X61172356Y49571811D01*
X61484366Y49780290D01*
X61540000Y49835924D01*
X61595634Y49780290D01*
X61907644Y49571811D01*
X62254332Y49428209D01*
X62622374Y49355000D01*
X62997626Y49355000D01*
X63365668Y49428209D01*
X63712356Y49571811D01*
X64024366Y49780290D01*
X64080000Y49835924D01*
X64135634Y49780290D01*
X64447644Y49571811D01*
X64794332Y49428209D01*
X65162374Y49355000D01*
X65537626Y49355000D01*
X65905668Y49428209D01*
X66252356Y49571811D01*
X66564366Y49780290D01*
X66620000Y49835924D01*
X66675634Y49780290D01*
X66987644Y49571811D01*
X67334332Y49428209D01*
X67702374Y49355000D01*
X68077626Y49355000D01*
X68445668Y49428209D01*
X68792356Y49571811D01*
X69104366Y49780290D01*
X69160000Y49835924D01*
X69215634Y49780290D01*
X69527644Y49571811D01*
X69874332Y49428209D01*
X70242374Y49355000D01*
X70617626Y49355000D01*
X70985668Y49428209D01*
X71332356Y49571811D01*
X71644366Y49780290D01*
X71700000Y49835924D01*
X71755634Y49780290D01*
X72067644Y49571811D01*
X72414332Y49428209D01*
X72782374Y49355000D01*
X73157626Y49355000D01*
X73525668Y49428209D01*
X73872356Y49571811D01*
X74184366Y49780290D01*
X74240000Y49835924D01*
X74295634Y49780290D01*
X74607644Y49571811D01*
X74954332Y49428209D01*
X75322374Y49355000D01*
X75697626Y49355000D01*
X76065668Y49428209D01*
X76412356Y49571811D01*
X76523970Y49646389D01*
X76649911Y49543032D01*
X76848477Y49436897D01*
X77063933Y49371539D01*
X77288000Y49349470D01*
X78812000Y49349470D01*
X79036067Y49371539D01*
X79251523Y49436897D01*
X79450089Y49543032D01*
X79624133Y49685867D01*
X79766968Y49859911D01*
X79873103Y50058477D01*
X79938461Y50273933D01*
X79960530Y50498000D01*
X79960530Y52022000D01*
X79938461Y52246067D01*
X79873103Y52461523D01*
X79766968Y52660089D01*
X79624133Y52834133D01*
X79450089Y52976968D01*
X79251523Y53083103D01*
X79036067Y53148461D01*
X78812000Y53170530D01*
X77288000Y53170530D01*
X77063933Y53148461D01*
X76848477Y53083103D01*
X76649911Y52976968D01*
X76523970Y52873611D01*
X76412356Y52948189D01*
X76065668Y53091791D01*
X75697626Y53165000D01*
X75322374Y53165000D01*
X74954332Y53091791D01*
X74607644Y52948189D01*
X74295634Y52739710D01*
X74240000Y52684076D01*
X74184366Y52739710D01*
X73872356Y52948189D01*
X73525668Y53091791D01*
X73157626Y53165000D01*
X72782374Y53165000D01*
X72414332Y53091791D01*
X72067644Y52948189D01*
X71755634Y52739710D01*
X71700000Y52684076D01*
X71644366Y52739710D01*
X71332356Y52948189D01*
X70985668Y53091791D01*
X70617626Y53165000D01*
X70242374Y53165000D01*
X69874332Y53091791D01*
X69527644Y52948189D01*
X69215634Y52739710D01*
X69160000Y52684076D01*
X69104366Y52739710D01*
X68792356Y52948189D01*
X68445668Y53091791D01*
X68077626Y53165000D01*
X67702374Y53165000D01*
X67334332Y53091791D01*
X66987644Y52948189D01*
X66675634Y52739710D01*
X66620000Y52684076D01*
X66564366Y52739710D01*
X66252356Y52948189D01*
X65905668Y53091791D01*
X65537626Y53165000D01*
X65162374Y53165000D01*
X64794332Y53091791D01*
X64447644Y52948189D01*
X64135634Y52739710D01*
X64080000Y52684076D01*
X64024366Y52739710D01*
X63712356Y52948189D01*
X63365668Y53091791D01*
X62997626Y53165000D01*
X62622374Y53165000D01*
X62254332Y53091791D01*
X61907644Y52948189D01*
X61595634Y52739710D01*
X61540000Y52684076D01*
X61484366Y52739710D01*
X61172356Y52948189D01*
X60825668Y53091791D01*
X60457626Y53165000D01*
X60082374Y53165000D01*
X59714332Y53091791D01*
X59367644Y52948189D01*
X59055634Y52739710D01*
X59000000Y52684076D01*
X58944366Y52739710D01*
X58632356Y52948189D01*
X58285668Y53091791D01*
X57917626Y53165000D01*
X57542374Y53165000D01*
X57174332Y53091791D01*
X56827644Y52948189D01*
X56515634Y52739710D01*
X56460000Y52684076D01*
X56404366Y52739710D01*
X56092356Y52948189D01*
X55745668Y53091791D01*
X55377626Y53165000D01*
X55002374Y53165000D01*
X54634332Y53091791D01*
X54287644Y52948189D01*
X53975634Y52739710D01*
X53920000Y52684076D01*
X53864366Y52739710D01*
X53552356Y52948189D01*
X53205668Y53091791D01*
X52837626Y53165000D01*
X52462374Y53165000D01*
X52094332Y53091791D01*
X51747644Y52948189D01*
X51435634Y52739710D01*
X51380000Y52684076D01*
X51324366Y52739710D01*
X51012356Y52948189D01*
X50665668Y53091791D01*
X50297626Y53165000D01*
X49922374Y53165000D01*
X49554332Y53091791D01*
X49207644Y52948189D01*
X48895634Y52739710D01*
X48840000Y52684076D01*
X48784366Y52739710D01*
X48472356Y52948189D01*
X48125668Y53091791D01*
X47757626Y53165000D01*
X47382374Y53165000D01*
X47014332Y53091791D01*
X46667644Y52948189D01*
X46355634Y52739710D01*
X46090290Y52474366D01*
X45974008Y52300338D01*
X45932369Y52341977D01*
X45815959Y52225567D01*
X45748980Y52465656D01*
X45499952Y52582756D01*
X45232865Y52649023D01*
X44957983Y52661910D01*
X44685867Y52620922D01*
X44426977Y52527636D01*
X44311020Y52465656D01*
X44244041Y52225567D01*
X44127631Y52341977D01*
X44085992Y52300338D01*
X43969710Y52474366D01*
X43704366Y52739710D01*
X43392356Y52948189D01*
X43045668Y53091791D01*
X42677626Y53165000D01*
X42302374Y53165000D01*
X41934332Y53091791D01*
X41587644Y52948189D01*
X41275634Y52739710D01*
X41010290Y52474366D01*
X40801811Y52162356D01*
X40658209Y51815668D01*
X40585000Y51447626D01*
X40585000Y51072374D01*
X40658209Y50704332D01*
X40801811Y50357644D01*
X40847000Y50290014D01*
X40847001Y49053000D01*
X29350699Y49053000D01*
X29270000Y49060948D01*
X29189301Y49053000D01*
X29189294Y49053000D01*
X28977841Y49032173D01*
X28947915Y49029226D01*
X28679416Y48947778D01*
X28638209Y48935278D01*
X28352782Y48782714D01*
X28102603Y48577397D01*
X28051157Y48514710D01*
X24325905Y44789457D01*
X24015383Y44758874D01*
X23635931Y44643768D01*
X23286226Y44456847D01*
X23140000Y44336842D01*
X22993774Y44456847D01*
X22644068Y44643768D01*
X22264616Y44758874D01*
X21870000Y44797740D01*
X21475383Y44758874D01*
X21095931Y44643768D01*
X20746226Y44456847D01*
X20439707Y44205293D01*
X20247639Y43971258D01*
X20050809Y44104474D01*
X19777591Y44219551D01*
X19690031Y44236302D01*
X19457000Y44115246D01*
X19457000Y42677000D01*
X19477000Y42677000D01*
X19477000Y42423000D01*
X19457000Y42423000D01*
X19457000Y40984754D01*
X19690031Y40863698D01*
X19777591Y40880449D01*
X20050809Y40995526D01*
X20227000Y41114774D01*
X20227000Y40205121D01*
X20214500Y40078205D01*
X20214500Y40078199D01*
X20206552Y39997500D01*
X20214500Y39916801D01*
X20214501Y38790933D01*
X20148342Y38572840D01*
X20121470Y38300000D01*
X20121470Y37350000D01*
X20148342Y37077160D01*
X20227001Y36817859D01*
X20227001Y36724523D01*
X20115032Y36588089D01*
X20008897Y36389523D01*
X19943539Y36174067D01*
X19921470Y35950000D01*
X19921470Y33950000D01*
X19943539Y33725933D01*
X20008897Y33510477D01*
X20115032Y33311911D01*
X20257867Y33137867D01*
X20431911Y32995032D01*
X20630477Y32888897D01*
X20845933Y32823539D01*
X21070000Y32801470D01*
X22477000Y32801470D01*
X22477001Y30798530D01*
X22220000Y30798530D01*
X21995933Y30776461D01*
X21780477Y30711103D01*
X21581911Y30604968D01*
X21407867Y30462133D01*
X21265032Y30288089D01*
X21158897Y30089523D01*
X21093539Y29874067D01*
X21071470Y29650000D01*
X21071470Y27650000D01*
X21093539Y27425933D01*
X21158897Y27210477D01*
X21265032Y27011911D01*
X21407867Y26837867D01*
X21581911Y26695032D01*
X21780477Y26588897D01*
X21995933Y26523539D01*
X22220000Y26501470D01*
X22321614Y26501470D01*
X22321470Y26500003D01*
X22321470Y25199997D01*
X22348342Y24927158D01*
X22427927Y24664804D01*
X22557164Y24423017D01*
X22731089Y24211089D01*
X22943017Y24037164D01*
X23184804Y23907927D01*
X23447158Y23828342D01*
X23719997Y23801470D01*
X23857478Y23801470D01*
X27335198Y20323750D01*
X27182282Y20170834D01*
X27125537Y20276994D01*
X27046185Y20373685D01*
X26949494Y20453037D01*
X26839180Y20512002D01*
X26719482Y20548312D01*
X26595000Y20560572D01*
X26155750Y20557500D01*
X25997000Y20398750D01*
X25997000Y19462000D01*
X26017000Y19462000D01*
X26017000Y19208000D01*
X25997000Y19208000D01*
X25997000Y19188000D01*
X25743000Y19188000D01*
X25743000Y19208000D01*
X24668750Y19208000D01*
X24510000Y19049250D01*
X24506928Y18747500D01*
X24514066Y18675024D01*
X24406090Y18586410D01*
X24232165Y18374482D01*
X24102927Y18132694D01*
X24023342Y17870340D01*
X23996470Y17597500D01*
X23996470Y16922500D01*
X24023342Y16649660D01*
X24102927Y16387306D01*
X24227000Y16155180D01*
X24227001Y15560553D01*
X23964513Y15298065D01*
X23918507Y15293534D01*
X23926941Y18839698D01*
X23924501Y18864776D01*
X23917274Y18888601D01*
X23917000Y18889114D01*
X23917000Y19922500D01*
X24506928Y19922500D01*
X24510000Y19620750D01*
X24668750Y19462000D01*
X25743000Y19462000D01*
X25743000Y20398750D01*
X25584250Y20557500D01*
X25145000Y20560572D01*
X25020518Y20548312D01*
X24900820Y20512002D01*
X24790506Y20453037D01*
X24693815Y20373685D01*
X24614463Y20276994D01*
X24555498Y20166680D01*
X24519188Y20046982D01*
X24506928Y19922500D01*
X23917000Y19922500D01*
X23917000Y22110000D01*
X23914560Y22134776D01*
X23907333Y22158601D01*
X23895597Y22180557D01*
X23879803Y22199803D01*
X23860557Y22215597D01*
X23838601Y22227333D01*
X23814776Y22234560D01*
X23790000Y22237000D01*
X3328000Y22237000D01*
X3328000Y41455000D01*
X15281928Y41455000D01*
X15294188Y41330518D01*
X15330498Y41210820D01*
X15389463Y41100506D01*
X15468815Y41003815D01*
X15565506Y40924463D01*
X15675820Y40865498D01*
X15795518Y40829188D01*
X15920000Y40816928D01*
X16504250Y40820000D01*
X16663000Y40978750D01*
X16663000Y42423000D01*
X16917000Y42423000D01*
X16917000Y40978750D01*
X17075750Y40820000D01*
X17660000Y40816928D01*
X17784482Y40829188D01*
X17904180Y40865498D01*
X18014494Y40924463D01*
X18111185Y41003815D01*
X18190537Y41100506D01*
X18249502Y41210820D01*
X18264916Y41261633D01*
X18363674Y41161694D01*
X18609191Y40995526D01*
X18882409Y40880449D01*
X18969969Y40863698D01*
X19203000Y40984754D01*
X19203000Y42423000D01*
X16917000Y42423000D01*
X16663000Y42423000D01*
X15443750Y42423000D01*
X15285000Y42264250D01*
X15281928Y41455000D01*
X3328000Y41455000D01*
X3328000Y43645000D01*
X15281928Y43645000D01*
X15285000Y42835750D01*
X15443750Y42677000D01*
X16663000Y42677000D01*
X16663000Y44121250D01*
X16917000Y44121250D01*
X16917000Y42677000D01*
X19203000Y42677000D01*
X19203000Y44115246D01*
X18969969Y44236302D01*
X18882409Y44219551D01*
X18609191Y44104474D01*
X18363674Y43938306D01*
X18264916Y43838367D01*
X18249502Y43889180D01*
X18190537Y43999494D01*
X18111185Y44096185D01*
X18014494Y44175537D01*
X17904180Y44234502D01*
X17784482Y44270812D01*
X17660000Y44283072D01*
X17075750Y44280000D01*
X16917000Y44121250D01*
X16663000Y44121250D01*
X16504250Y44280000D01*
X15920000Y44283072D01*
X15795518Y44270812D01*
X15675820Y44234502D01*
X15565506Y44175537D01*
X15468815Y44096185D01*
X15389463Y43999494D01*
X15330498Y43889180D01*
X15294188Y43769482D01*
X15281928Y43645000D01*
X3328000Y43645000D01*
X3328000Y54512000D01*
X88272001Y54512000D01*
X88272000Y1168000D01*
G37*
%TD.AperFunction*%
D24*
X69215634Y24380290D02*
X69518582Y24177866D01*
X76157000Y17539447D01*
X76157001Y13260413D01*
X76130000Y13263072D01*
X75545750Y13260000D01*
X75387000Y13101250D01*
X75387000Y11657000D01*
X75407000Y11657000D01*
X75407000Y11403000D01*
X75387000Y11403000D01*
X75387000Y11383000D01*
X75133000Y11383000D01*
X75133000Y11403000D01*
X73913750Y11403000D01*
X73755000Y11244250D01*
X73751928Y10435000D01*
X73758034Y10373000D01*
X68480553Y10373000D01*
X66637645Y12215907D01*
X66604627Y12295620D01*
X66413877Y12581098D01*
X66369975Y12625000D01*
X73751928Y12625000D01*
X73755000Y11815750D01*
X73913750Y11657000D01*
X75133000Y11657000D01*
X75133000Y13101250D01*
X74974250Y13260000D01*
X74390000Y13263072D01*
X74265518Y13250812D01*
X74145820Y13214502D01*
X74035506Y13155537D01*
X73938815Y13076185D01*
X73859463Y12979494D01*
X73800498Y12869180D01*
X73764188Y12749482D01*
X73751928Y12625000D01*
X66369975Y12625000D01*
X66171098Y12823877D01*
X65885620Y13014627D01*
X65647013Y13113461D01*
X66725908Y14192355D01*
X66805620Y14225373D01*
X67091098Y14416123D01*
X67333877Y14658902D01*
X67524627Y14944380D01*
X67656018Y15261586D01*
X67723000Y15598329D01*
X67723000Y15941671D01*
X67656018Y16278414D01*
X67524627Y16595620D01*
X67333877Y16881098D01*
X67091098Y17123877D01*
X66805620Y17314627D01*
X66488414Y17446018D01*
X66151671Y17513000D01*
X65808329Y17513000D01*
X65471586Y17446018D01*
X65154380Y17314627D01*
X64868902Y17123877D01*
X64626123Y16881098D01*
X64435373Y16595620D01*
X64433610Y16591365D01*
X64251098Y16773877D01*
X63965620Y16964627D01*
X63648414Y17096018D01*
X63311671Y17163000D01*
X63138530Y17163000D01*
X63138530Y17790001D01*
X63111658Y18062840D01*
X63032073Y18325195D01*
X62902835Y18566982D01*
X62728910Y18778910D01*
X62516982Y18952835D01*
X62275195Y19082073D01*
X62012840Y19161658D01*
X61740001Y19188530D01*
X61002082Y19188530D01*
X65825894Y24012341D01*
X65905668Y24028209D01*
X66252356Y24171811D01*
X66564366Y24380290D01*
X66620000Y24435924D01*
X66675634Y24380290D01*
X66987644Y24171811D01*
X67334332Y24028209D01*
X67702374Y23955000D01*
X68077626Y23955000D01*
X68445668Y24028209D01*
X68792356Y24171811D01*
X69104366Y24380290D01*
X69160000Y24435924D01*
X69215634Y24380290D01*
%TA.AperFunction,Conductor*%
D25*
G36*
X69215634Y24380290D02*
G01*
X69518582Y24177866D01*
X76157000Y17539447D01*
X76157001Y13260413D01*
X76130000Y13263072D01*
X75545750Y13260000D01*
X75387000Y13101250D01*
X75387000Y11657000D01*
X75407000Y11657000D01*
X75407000Y11403000D01*
X75387000Y11403000D01*
X75387000Y11383000D01*
X75133000Y11383000D01*
X75133000Y11403000D01*
X73913750Y11403000D01*
X73755000Y11244250D01*
X73751928Y10435000D01*
X73758034Y10373000D01*
X68480553Y10373000D01*
X66637645Y12215907D01*
X66604627Y12295620D01*
X66413877Y12581098D01*
X66369975Y12625000D01*
X73751928Y12625000D01*
X73755000Y11815750D01*
X73913750Y11657000D01*
X75133000Y11657000D01*
X75133000Y13101250D01*
X74974250Y13260000D01*
X74390000Y13263072D01*
X74265518Y13250812D01*
X74145820Y13214502D01*
X74035506Y13155537D01*
X73938815Y13076185D01*
X73859463Y12979494D01*
X73800498Y12869180D01*
X73764188Y12749482D01*
X73751928Y12625000D01*
X66369975Y12625000D01*
X66171098Y12823877D01*
X65885620Y13014627D01*
X65647013Y13113461D01*
X66725908Y14192355D01*
X66805620Y14225373D01*
X67091098Y14416123D01*
X67333877Y14658902D01*
X67524627Y14944380D01*
X67656018Y15261586D01*
X67723000Y15598329D01*
X67723000Y15941671D01*
X67656018Y16278414D01*
X67524627Y16595620D01*
X67333877Y16881098D01*
X67091098Y17123877D01*
X66805620Y17314627D01*
X66488414Y17446018D01*
X66151671Y17513000D01*
X65808329Y17513000D01*
X65471586Y17446018D01*
X65154380Y17314627D01*
X64868902Y17123877D01*
X64626123Y16881098D01*
X64435373Y16595620D01*
X64433610Y16591365D01*
X64251098Y16773877D01*
X63965620Y16964627D01*
X63648414Y17096018D01*
X63311671Y17163000D01*
X63138530Y17163000D01*
X63138530Y17790001D01*
X63111658Y18062840D01*
X63032073Y18325195D01*
X62902835Y18566982D01*
X62728910Y18778910D01*
X62516982Y18952835D01*
X62275195Y19082073D01*
X62012840Y19161658D01*
X61740001Y19188530D01*
X61002082Y19188530D01*
X65825894Y24012341D01*
X65905668Y24028209D01*
X66252356Y24171811D01*
X66564366Y24380290D01*
X66620000Y24435924D01*
X66675634Y24380290D01*
X66987644Y24171811D01*
X67334332Y24028209D01*
X67702374Y23955000D01*
X68077626Y23955000D01*
X68445668Y24028209D01*
X68792356Y24171811D01*
X69104366Y24380290D01*
X69160000Y24435924D01*
X69215634Y24380290D01*
G37*
%TD.AperFunction*%
D24*
X45223748Y25874142D02*
X45209605Y25860000D01*
X45223748Y25845857D01*
X45044143Y25666252D01*
X45030000Y25680395D01*
X45015858Y25666252D01*
X44836253Y25845857D01*
X44850395Y25860000D01*
X44836253Y25874142D01*
X45015858Y26053747D01*
X45030000Y26039605D01*
X45044143Y26053747D01*
X45223748Y25874142D01*
%TA.AperFunction,Conductor*%
D25*
G36*
X45223748Y25874142D02*
G01*
X45209605Y25860000D01*
X45223748Y25845857D01*
X45044143Y25666252D01*
X45030000Y25680395D01*
X45015858Y25666252D01*
X44836253Y25845857D01*
X44850395Y25860000D01*
X44836253Y25874142D01*
X45015858Y26053747D01*
X45030000Y26039605D01*
X45044143Y26053747D01*
X45223748Y25874142D01*
G37*
%TD.AperFunction*%
D24*
X45223748Y51274142D02*
X45209605Y51260000D01*
X45223748Y51245857D01*
X45044143Y51066252D01*
X45030000Y51080395D01*
X45015858Y51066252D01*
X44836253Y51245857D01*
X44850395Y51260000D01*
X44836253Y51274142D01*
X45015858Y51453747D01*
X45030000Y51439605D01*
X45044143Y51453747D01*
X45223748Y51274142D01*
%TA.AperFunction,Conductor*%
D25*
G36*
X45223748Y51274142D02*
G01*
X45209605Y51260000D01*
X45223748Y51245857D01*
X45044143Y51066252D01*
X45030000Y51080395D01*
X45015858Y51066252D01*
X44836253Y51245857D01*
X44850395Y51260000D01*
X44836253Y51274142D01*
X45015858Y51453747D01*
X45030000Y51439605D01*
X45044143Y51453747D01*
X45223748Y51274142D01*
G37*
%TD.AperFunction*%
%TD*%
M02*
